<svg width="56" height="55" viewBox="0 0 56 55" fill="none" xmlns="http://www.w3.org/2000/svg">
<path d="M28 0C22.4621 0 17.0486 1.6115 12.444 4.63071C7.83947 7.64992 4.25064 11.9412 2.13139 16.962C0.012132 21.9828 -0.542361 27.5075 0.538025 32.8375C1.61841 38.1675 4.28515 43.0635 8.20102 46.9062C12.1169 50.7489 17.106 53.3658 22.5375 54.426C27.9689 55.4863 33.5988 54.9421 38.7151 52.8624C43.8315 50.7828 48.2045 47.261 51.2812 42.7424C54.3578 38.2238 56 32.9114 56 27.477C55.9858 20.1939 53.0312 13.2132 47.7833 8.06325C42.5353 2.91334 35.4217 0.0139656 28 0ZM28 44.3859C27.361 44.3859 26.7364 44.2 26.2051 43.8516C25.6738 43.5032 25.2597 43.0081 25.0152 42.4288C24.7706 41.8495 24.7067 41.212 24.8313 40.597C24.956 39.982 25.2637 39.4171 25.7155 38.9737C26.1673 38.5303 26.743 38.2283 27.3697 38.106C27.9964 37.9837 28.646 38.0465 29.2364 38.2864C29.8267 38.5264 30.3313 38.9327 30.6863 39.4541C31.0413 39.9755 31.2308 40.5885 31.2308 41.2155C31.2308 42.0564 30.8904 42.8628 30.2845 43.4573C29.6786 44.0519 28.8569 44.3859 28 44.3859ZM30.1539 31.4665V31.7042C30.1539 32.2648 29.9269 32.8024 29.523 33.1988C29.1191 33.5952 28.5712 33.8179 28 33.8179C27.4288 33.8179 26.8809 33.5952 26.477 33.1988C26.0731 32.8024 25.8462 32.2648 25.8462 31.7042V29.5906C25.8462 29.0301 26.0731 28.4924 26.477 28.0961C26.8809 27.6997 27.4288 27.477 28 27.477C29.065 27.477 30.106 27.1671 30.9915 26.5865C31.877 26.0059 32.5672 25.1806 32.9747 24.2151C33.3823 23.2495 33.4889 22.1871 33.2812 21.1621C33.0734 20.1371 32.5606 19.1956 31.8075 18.4566C31.0545 17.7176 30.095 17.2143 29.0505 17.0105C28.006 16.8066 26.9233 16.9112 25.9394 17.3111C24.9555 17.7111 24.1145 18.3884 23.5229 19.2573C22.9312 20.1263 22.6154 21.1479 22.6154 22.193C22.6154 22.7535 22.3885 23.2911 21.9845 23.6875C21.5806 24.0839 21.0328 24.3066 20.4615 24.3066C19.8903 24.3066 19.3425 24.0839 18.9385 23.6875C18.5346 23.2911 18.3077 22.7535 18.3077 22.193C18.3077 20.4025 18.8227 18.6484 19.7935 17.1324C20.7643 15.6164 22.1514 14.4 23.7954 13.6233C25.4393 12.8466 27.2733 12.541 29.0863 12.7417C30.8994 12.9423 32.6179 13.6411 34.0442 14.7577C35.4706 15.8743 36.5467 17.3632 37.149 19.0534C37.7513 20.7435 37.8552 22.5661 37.4488 24.3116C37.0424 26.0571 36.1422 27.6546 34.8517 28.9203C33.5612 30.186 31.9328 31.0686 30.1539 31.4665Z" fill="black"/>
</svg>
