<svg width="189" height="50" viewBox="0 0 189 50" fill="none" xmlns="http://www.w3.org/2000/svg">
<path d="M189 44.8963C189 47.6526 186.595 49.8484 183.577 49.8484H5.82879C2.81004 49.8484 0.405273 47.6526 0.405273 44.8963V5.4193C0.405273 2.66292 2.86121 0.467163 5.82879 0.467163H183.577C186.595 0.467163 189 2.70964 189 5.4193V44.8963Z" fill="#FFAB49"/>
<path d="M189 44.8963C189 47.6526 186.595 49.8484 183.577 49.8484H5.82879C2.81004 49.8484 0.405273 47.6526 0.405273 44.8963V5.4193C0.405273 2.66292 2.86121 0.467163 5.82879 0.467163H183.577C186.595 0.467163 189 2.70964 189 5.4193V44.8963Z" fill="#FFAB49"/>
<path d="M43.1795 25.6015C43.1284 21.5371 46.8123 19.5282 47.0169 19.4347C44.9191 16.6316 41.6957 16.2579 40.5189 16.2579C37.8072 15.9776 35.1466 17.7529 33.7651 17.7529C32.3325 17.7529 30.2347 16.3046 27.8811 16.3513C24.9136 16.398 22.1506 17.9397 20.6157 20.4158C17.4946 25.368 19.797 32.656 22.8158 36.6738C24.2996 38.636 26.0904 40.8317 28.3928 40.7383C30.6441 40.6448 31.4627 39.4302 34.2256 39.4302C36.9374 39.4302 37.7049 40.7383 40.0585 40.6916C42.4632 40.6448 43.9982 38.7294 45.4308 36.7205C47.1704 34.478 47.8867 32.2355 47.8867 32.1421C47.8356 32.0954 43.2307 30.507 43.1795 25.6015ZM38.7282 13.6417C39.9561 12.2401 40.7748 10.3714 40.5189 8.45593C38.7793 8.54937 36.5792 9.57717 35.3001 10.932C34.1745 12.1467 33.2023 14.0621 33.4581 15.9309C35.4536 16.0243 37.5002 14.9965 38.7282 13.6417Z" fill="white"/>
<path d="M75.7714 38.9631H72.5992L70.8596 34.0109H64.8732L63.2359 38.9631H60.166L66.1012 22.1445H69.7851L75.7714 38.9631ZM70.3991 31.9553L68.8641 27.5638C68.7106 27.0966 68.4036 26.0688 67.9431 24.387H67.892C67.6873 25.0877 67.4315 26.1623 67.0222 27.5638L65.4872 31.9553H70.3991ZM91.0186 32.7495C91.0186 34.8051 90.4047 36.4403 89.1767 37.655C88.0511 38.7295 86.7208 39.2434 85.0835 39.2434C83.3439 39.2434 82.0647 38.6828 81.2972 37.5148V43.9152H78.3297V30.8341C78.3297 29.526 78.2785 28.2179 78.2273 26.863H80.8368L80.9903 28.7785H81.0414C82.0136 27.3302 83.4974 26.5827 85.544 26.5827C87.1301 26.5827 88.4092 27.1433 89.4837 28.2646C90.507 29.4325 91.0186 30.9275 91.0186 32.7495ZM87.9999 32.843C87.9999 31.675 87.6929 30.6939 87.1301 29.8997C86.5161 29.1055 85.6463 28.685 84.5718 28.685C83.8555 28.685 83.1904 28.9186 82.5764 29.3391C81.9624 29.7596 81.6042 30.3669 81.3996 31.0677C81.2972 31.348 81.2973 31.6283 81.2461 31.9086V33.9175C81.2461 34.8051 81.5531 35.5526 82.1159 36.16C82.7299 36.7673 83.4974 37.0943 84.4183 37.0943C85.544 37.0943 86.4138 36.7206 87.0278 35.9264C87.6929 35.1789 87.9999 34.1511 87.9999 32.843ZM106.317 32.7495C106.317 34.8051 105.703 36.4403 104.475 37.655C103.349 38.7295 102.019 39.2434 100.382 39.2434C98.6423 39.2434 97.3631 38.6828 96.5957 37.5148V43.9152H93.6281V30.8341C93.6281 29.526 93.5769 28.2179 93.5257 26.863H96.1352L96.2887 28.7785H96.3398C97.312 27.3302 98.7958 26.5827 100.842 26.5827C102.428 26.5827 103.708 27.1433 104.782 28.2646C105.805 29.4325 106.317 30.9275 106.317 32.7495ZM103.298 32.843C103.298 31.675 102.991 30.6939 102.428 29.8997C101.815 29.1055 100.945 28.685 99.8702 28.685C99.1539 28.685 98.4888 28.9186 97.8748 29.3391C97.2608 29.7596 96.9026 30.3669 96.698 31.0677C96.5957 31.3947 96.5445 31.675 96.5445 31.9086V33.9175C96.5445 34.8051 96.8515 35.5526 97.4143 36.16C98.0283 36.7673 98.7957 37.0943 99.7167 37.0943C100.842 37.0943 101.712 36.7206 102.326 35.9264C102.991 35.1789 103.298 34.1511 103.298 32.843ZM123.406 34.2445C123.406 35.6928 122.843 36.8607 121.769 37.7484C120.592 38.7295 118.904 39.2434 116.755 39.2434C114.759 39.2434 113.173 38.9164 111.996 38.2156L112.662 35.9731C113.941 36.6739 115.373 37.0009 116.908 37.0009C118.034 37.0009 118.904 36.7673 119.518 36.3001C120.132 35.8329 120.439 35.2256 120.439 34.4781C120.439 33.7773 120.183 33.2167 119.671 32.7495C119.159 32.2823 118.29 31.8619 117.113 31.4414C113.889 30.3202 112.252 28.7318 112.252 26.6294C112.252 25.2279 112.815 24.1066 113.941 23.219C115.066 22.3314 116.601 21.9109 118.494 21.9109C120.183 21.9109 121.564 22.1912 122.69 22.7051L121.974 24.9009C120.95 24.387 119.773 24.1066 118.443 24.1066C117.42 24.1066 116.601 24.3402 115.987 24.8074C115.476 25.2279 115.271 25.7418 115.271 26.3491C115.271 27.0032 115.578 27.5638 116.141 27.9843C116.652 28.4047 117.522 28.8252 118.801 29.2924C120.387 29.8997 121.564 30.5538 122.281 31.348C123.048 32.0955 123.406 33.0766 123.406 34.2445ZM133.23 28.8719H129.955V34.7584C129.955 36.2534 130.518 37.0009 131.695 37.0009C132.207 37.0009 132.667 36.9542 133.025 36.8607L133.128 38.9164C132.565 39.1032 131.797 39.1967 130.825 39.1967C129.648 39.1967 128.727 38.8696 128.113 38.2156C127.448 37.5615 127.141 36.487 127.141 34.9453V28.8719H125.197V26.863H127.141V24.6205L130.058 23.8263V26.863H133.332V28.8719H133.23ZM147.863 32.7963C147.863 34.665 147.3 36.2067 146.124 37.3746C144.896 38.5893 143.258 39.2434 141.263 39.2434C139.319 39.2434 137.732 38.636 136.607 37.4681C135.43 36.3001 134.867 34.8051 134.867 32.9831C134.867 31.1144 135.481 29.5727 136.658 28.358C137.835 27.1433 139.472 26.536 141.468 26.536C143.412 26.536 144.998 27.1433 146.175 28.3113C147.3 29.526 147.863 30.9742 147.863 32.7963ZM144.793 32.8897C144.793 31.7684 144.537 30.8341 144.026 30.0399C143.412 29.0588 142.542 28.5916 141.365 28.5916C140.188 28.5916 139.267 29.0588 138.653 30.0399C138.142 30.8341 137.886 31.8152 137.886 32.9364C137.886 34.0576 138.142 34.992 138.653 35.7862C139.267 36.7673 140.188 37.2345 141.314 37.2345C142.44 37.2345 143.309 36.7206 143.975 35.7862C144.537 34.9453 144.793 33.9642 144.793 32.8897ZM157.482 29.1989C157.175 29.1522 156.868 29.1055 156.561 29.1055C155.538 29.1055 154.719 29.4793 154.157 30.18C153.645 30.8341 153.44 31.6283 153.44 32.5627V38.9164H150.473V30.6472C150.473 29.3858 150.421 28.0777 150.37 26.8163H152.929L153.031 29.1522H153.133C153.44 28.358 153.952 27.704 154.617 27.2368C155.231 26.8163 155.998 26.5827 156.766 26.5827C157.022 26.5827 157.278 26.5827 157.482 26.6294V29.1989ZM170.683 32.3291C170.683 32.7495 170.632 33.17 170.581 33.5437H161.729C161.78 34.7584 162.189 35.6461 163.008 36.3001C163.776 36.8607 164.697 37.1411 165.925 37.1411C167.255 37.1411 168.432 36.9542 169.506 36.5804L169.967 38.4492C168.687 38.9631 167.204 39.1967 165.515 39.1967C163.469 39.1967 161.831 38.636 160.655 37.5148C159.478 36.3936 158.915 34.8986 158.915 33.0766C158.915 31.2545 159.478 29.7128 160.552 28.4982C161.678 27.1901 163.264 26.536 165.208 26.536C167.101 26.536 168.585 27.1901 169.557 28.4982C170.325 29.526 170.683 30.8341 170.683 32.3291ZM167.869 31.6283C167.869 30.8341 167.715 30.1333 167.306 29.5727C166.794 28.8252 166.027 28.4515 164.952 28.4515C163.98 28.4515 163.213 28.8252 162.599 29.5727C162.087 30.1333 161.831 30.8341 161.729 31.675L167.869 31.6283Z" fill="white"/>
<path d="M68.1996 7.94216C68.8135 8.22247 69.3252 8.64293 69.6322 9.20355C69.9903 9.76417 70.1438 10.3715 70.1438 11.0723C70.1438 11.7731 69.9903 12.4271 69.6322 12.941C69.274 13.4549 68.8135 13.8754 68.1996 14.2024C67.5856 14.4827 66.8693 14.6229 66.0506 14.6229H63.3389V7.47498H66.0506C66.8181 7.47498 67.5856 7.61513 68.1996 7.94216ZM67.8414 12.8009C68.3019 12.3804 68.5065 11.8198 68.5065 11.0723C68.5065 10.3248 68.3019 9.76417 67.8414 9.34371C67.3809 8.92324 66.7669 8.73637 65.9483 8.73637H64.8227V13.4549H65.9483C66.7669 13.4082 67.4321 13.2213 67.8414 12.8009Z" fill="white"/>
<path d="M71.4228 8.03555C71.2182 7.89539 71.167 7.6618 71.167 7.42821C71.167 7.19462 71.2693 7.00774 71.4228 6.82087C71.6275 6.68072 71.8321 6.58728 72.088 6.58728C72.3438 6.58728 72.5996 6.68072 72.7531 6.82087C72.9578 6.96103 73.009 7.19462 73.009 7.42821C73.009 7.6618 72.9066 7.84867 72.7531 8.03555C72.5485 8.1757 72.3438 8.26914 72.088 8.26914C71.8321 8.26914 71.5763 8.22242 71.4228 8.03555ZM72.8554 8.96991V14.6228H71.2693V8.96991H72.8554Z" fill="white"/>
<path d="M75.4137 14.4827C75.0043 14.2959 74.6974 14.109 74.4415 13.782C74.1857 13.5016 74.0834 13.1746 74.0322 12.8476H75.6183C75.6695 13.0812 75.7718 13.2681 75.9765 13.4082C76.1812 13.5484 76.437 13.6418 76.744 13.6418C77.051 13.6418 77.2556 13.5951 77.4603 13.5016C77.6138 13.4082 77.7161 13.2681 77.7161 13.0812C77.7161 12.8943 77.6138 12.7542 77.4091 12.6607C77.2045 12.5673 76.8975 12.4738 76.437 12.3804C75.9765 12.287 75.6183 12.1935 75.3114 12.0534C75.0044 11.9599 74.7485 11.7731 74.5439 11.5395C74.3392 11.3059 74.2369 11.0256 74.2369 10.6518C74.2369 10.3248 74.3392 10.0445 74.5439 9.8109C74.7485 9.53059 75.0043 9.34372 75.4137 9.20356C75.7718 9.06341 76.2323 8.96997 76.6928 8.96997C77.4091 8.96997 78.0231 9.15684 78.4836 9.48387C78.9441 9.8109 79.1487 10.2781 79.1999 10.8387H77.7161C77.7161 10.6051 77.6138 10.4182 77.4091 10.3248C77.2045 10.1846 76.9998 10.1379 76.6928 10.1379C76.3858 10.1379 76.1811 10.1846 76.0277 10.2781C75.8742 10.3715 75.823 10.5117 75.823 10.6985C75.823 10.8854 75.9253 11.0256 76.13 11.119C76.3346 11.2124 76.6417 11.3059 77.1021 11.3993C77.5626 11.4928 77.9208 11.5862 78.2277 11.7264C78.5347 11.8198 78.7906 12.0067 78.9952 12.2403C79.1999 12.4738 79.3022 12.7542 79.3022 13.1279C79.3022 13.4549 79.1999 13.7352 78.9952 14.0155C78.7906 14.2959 78.5348 14.4827 78.1254 14.6229C77.7673 14.763 77.3068 14.8565 76.8463 14.8565C76.2835 14.7163 75.823 14.6229 75.4137 14.4827Z" fill="white"/>
<path d="M82.9354 9.11002C83.2936 8.92315 83.7029 8.82971 84.1634 8.82971C84.675 8.82971 85.1867 8.96987 85.596 9.20346C86.0053 9.43705 86.3635 9.76408 86.6193 10.2313C86.8751 10.6517 86.9775 11.1656 86.9775 11.773C86.9775 12.3336 86.8751 12.8475 86.6193 13.3147C86.3635 13.7819 86.0053 14.1089 85.596 14.3425C85.1867 14.5761 84.675 14.7162 84.1634 14.7162C83.7029 14.7162 83.2936 14.6228 82.9354 14.4826C82.5773 14.2958 82.3214 14.1089 82.0656 13.8286V17.3324H80.4795V8.96987H82.0656V9.8108C82.2703 9.53049 82.5773 9.2969 82.9354 9.11002ZM85.1355 10.8853C84.982 10.6517 84.7774 10.4649 84.5216 10.3247C84.2657 10.1845 84.0099 10.1378 83.7029 10.1378C83.3959 10.1378 83.1401 10.1845 82.8843 10.3247C82.6284 10.4649 82.4238 10.6517 82.2703 10.8853C82.1168 11.1189 82.0656 11.4459 82.0656 11.773C82.0656 12.1 82.1168 12.427 82.2703 12.6606C82.4238 12.8942 82.6284 13.1278 82.8843 13.2212C83.1401 13.3614 83.3959 13.4081 83.7029 13.4081C84.0099 13.4081 84.2657 13.3614 84.5216 13.2212C84.7774 13.0811 84.982 12.8942 85.1355 12.6606C85.289 12.427 85.3402 12.1 85.3402 11.773C85.3914 11.4459 85.289 11.1189 85.1355 10.8853Z" fill="white"/>
<path d="M89.2283 14.3425C88.7678 14.1089 88.3585 13.7351 88.1027 13.3147C87.8469 12.8942 87.6934 12.3803 87.6934 11.773C87.6934 11.2123 87.8469 10.6984 88.1027 10.2313C88.3585 9.8108 88.7678 9.43705 89.2283 9.20346C89.6888 8.96987 90.2516 8.82971 90.8656 8.82971C91.4796 8.82971 91.9913 8.96987 92.5029 9.20346C92.9634 9.43705 93.3727 9.8108 93.6285 10.2313C93.8844 10.6517 94.0379 11.1656 94.0379 11.773C94.0379 12.3336 93.8844 12.8475 93.6285 13.3147C93.3216 13.7351 92.9634 14.1089 92.4517 14.3425C91.9401 14.5761 91.4284 14.7162 90.8145 14.7162C90.2516 14.7162 89.74 14.5761 89.2283 14.3425ZM91.6843 13.268C91.9401 13.1278 92.1447 12.9409 92.2982 12.7073C92.4517 12.4737 92.5029 12.1467 92.5029 11.773C92.5029 11.2123 92.3494 10.8386 92.0424 10.5116C91.7354 10.2313 91.3773 10.0911 90.9168 10.0911C90.4563 10.0911 90.0981 10.2313 89.7912 10.5116C89.4842 10.7919 89.3307 11.2123 89.3307 11.773C89.3307 12.3336 89.4842 12.7073 89.7912 13.0344C90.0981 13.3147 90.4563 13.4548 90.9168 13.4548C91.1215 13.4548 91.4284 13.4081 91.6843 13.268Z" fill="white"/>
<path d="M100.485 9.53059C100.945 9.95106 101.15 10.5584 101.15 11.3059V14.6229H99.5639V11.4928C99.5639 11.0256 99.4616 10.6985 99.2057 10.465C98.9499 10.2314 98.6429 10.0912 98.1824 10.0912C97.7731 10.0912 97.4149 10.2314 97.1591 10.465C96.9033 10.6985 96.801 11.0723 96.801 11.4928V14.6229H95.2148V8.96997H96.801V9.67075C97.0056 9.43715 97.2615 9.25028 97.6196 9.11013C97.9266 8.96997 98.2848 8.92325 98.6941 8.92325C99.4104 8.87654 100.024 9.11013 100.485 9.53059Z" fill="white"/>
<path d="M102.736 8.03555C102.532 7.89539 102.48 7.6618 102.48 7.42821C102.48 7.19462 102.583 7.00774 102.736 6.82087C102.941 6.68072 103.146 6.58728 103.401 6.58728C103.657 6.58728 103.913 6.68072 104.067 6.82087C104.271 6.96103 104.322 7.19462 104.322 7.42821C104.322 7.6618 104.22 7.84867 104.067 8.03555C103.862 8.1757 103.657 8.26914 103.401 8.26914C103.146 8.26914 102.941 8.22242 102.736 8.03555ZM104.22 8.96991V14.6228H102.634V8.96991H104.22Z" fill="white"/>
<path d="M108.16 9.11005C108.518 8.92318 108.927 8.87646 109.388 8.87646C109.899 8.87646 110.411 9.01661 110.82 9.2502C111.23 9.48379 111.588 9.81082 111.844 10.278C112.099 10.6985 112.202 11.2124 112.202 11.8197C112.202 12.3803 112.099 12.8942 111.844 13.3614C111.588 13.8286 111.23 14.1556 110.82 14.3892C110.411 14.6228 109.899 14.763 109.388 14.763C108.927 14.763 108.518 14.6695 108.16 14.5294C107.801 14.3425 107.546 14.1556 107.341 13.8753V14.6695H105.755V7.05444H107.341V9.81082C107.546 9.53051 107.801 9.29692 108.16 9.11005ZM110.36 10.8853C110.206 10.6518 110.002 10.4649 109.746 10.3247C109.49 10.1846 109.234 10.1379 108.927 10.1379C108.62 10.1379 108.364 10.1846 108.108 10.3247C107.853 10.4649 107.648 10.6518 107.494 10.8853C107.341 11.1189 107.29 11.446 107.29 11.773C107.29 12.1 107.341 12.427 107.494 12.6606C107.648 12.8942 107.853 13.1278 108.108 13.2213C108.364 13.3614 108.62 13.4081 108.927 13.4081C109.234 13.4081 109.49 13.3614 109.746 13.2213C110.002 13.0811 110.206 12.8942 110.36 12.6606C110.513 12.427 110.564 12.1 110.564 11.773C110.616 11.446 110.513 11.1189 110.36 10.8853Z" fill="white"/>
<path d="M114.913 7.05444V14.6228H113.327V7.05444H114.913Z" fill="white"/>
<path d="M122.179 12.2401H117.626C117.677 12.6606 117.83 12.9876 118.086 13.2212C118.342 13.4548 118.7 13.5483 119.109 13.5483C119.672 13.5483 120.081 13.3147 120.337 12.8475H122.026C121.872 13.4081 121.514 13.8286 121.002 14.2023C120.491 14.5761 119.877 14.7162 119.109 14.7162C118.495 14.7162 117.984 14.5761 117.523 14.3425C117.063 14.1089 116.705 13.7351 116.398 13.3147C116.142 12.8942 115.988 12.3803 115.988 11.773C115.988 11.1656 116.142 10.6517 116.398 10.2313C116.653 9.8108 117.012 9.43705 117.472 9.20346C117.933 8.96987 118.495 8.82971 119.109 8.82971C119.723 8.82971 120.235 8.92315 120.695 9.15674C121.156 9.39033 121.514 9.71736 121.77 10.1378C122.026 10.5583 122.179 11.0722 122.179 11.5861C122.23 11.8664 122.179 12.0533 122.179 12.2401ZM120.593 11.2591C120.593 10.8853 120.44 10.605 120.133 10.3714C119.826 10.1378 119.519 10.0444 119.109 10.0444C118.7 10.0444 118.393 10.1378 118.137 10.3714C117.881 10.605 117.728 10.8853 117.626 11.2591H120.593Z" fill="white"/>
<path d="M127.04 14.4827C126.63 14.2959 126.323 14.109 126.068 13.782C125.812 13.5016 125.709 13.1746 125.658 12.8476H127.244C127.296 13.0812 127.398 13.2681 127.602 13.4082C127.807 13.5484 128.063 13.6418 128.37 13.6418C128.677 13.6418 128.882 13.5951 129.086 13.5016C129.24 13.4082 129.342 13.2681 129.342 13.0812C129.342 12.8943 129.24 12.7542 129.035 12.6607C128.83 12.5673 128.523 12.4738 128.063 12.3804C127.602 12.287 127.244 12.1935 126.937 12.0534C126.63 11.9599 126.375 11.7731 126.17 11.5395C125.965 11.3059 125.863 11.0256 125.863 10.6518C125.863 10.3248 125.965 10.0445 126.17 9.8109C126.375 9.53059 126.63 9.34372 127.04 9.20356C127.398 9.06341 127.858 8.96997 128.319 8.96997C129.035 8.96997 129.649 9.15684 130.11 9.48387C130.57 9.8109 130.775 10.2781 130.826 10.8387H129.342C129.342 10.6051 129.24 10.4182 129.035 10.3248C128.83 10.1846 128.626 10.1379 128.319 10.1379C128.012 10.1379 127.807 10.1846 127.654 10.2781C127.5 10.3715 127.449 10.5117 127.449 10.6985C127.449 10.8854 127.551 11.0256 127.756 11.119C127.961 11.2124 128.268 11.3059 128.728 11.3993C129.189 11.4928 129.547 11.5862 129.854 11.7264C130.161 11.8198 130.417 12.0067 130.621 12.2403C130.826 12.4738 130.928 12.7542 130.928 13.1279C130.928 13.4549 130.826 13.7352 130.621 14.0155C130.417 14.2959 130.161 14.4827 129.751 14.6229C129.393 14.763 128.933 14.8565 128.472 14.8565C127.909 14.7163 127.449 14.6229 127.04 14.4827Z" fill="white"/>
<path d="M137.988 8.96994V14.6228H136.402V13.9221C136.198 14.1557 135.942 14.3425 135.635 14.4827C135.328 14.6229 134.97 14.6696 134.56 14.6696C134.1 14.6696 133.639 14.5761 133.281 14.3893C132.923 14.2024 132.616 13.9221 132.411 13.5483C132.207 13.1746 132.104 12.7541 132.104 12.2402V8.92322H133.691V12.0533C133.691 12.5205 133.793 12.8476 134.049 13.0811C134.305 13.3147 134.612 13.4549 135.072 13.4549C135.481 13.4549 135.84 13.3147 136.095 13.0811C136.351 12.8476 136.454 12.4738 136.454 12.0533V8.92322H137.988V8.96994Z" fill="white"/>
<path d="M141.877 9.15681C142.184 8.96994 142.593 8.92322 143.003 8.92322V10.4182H142.593C142.082 10.4182 141.724 10.5116 141.468 10.7452C141.212 10.9788 141.11 11.3059 141.11 11.8665V14.6696H139.523V8.96994H141.11V9.85758C141.263 9.53056 141.57 9.29696 141.877 9.15681Z" fill="white"/>
</svg>
