<svg width="70" height="70" viewBox="0 0 70 70" fill="none" xmlns="http://www.w3.org/2000/svg">
<path d="M62.0977 12.2363H51.8438V15.2715H53.3203C54.3047 15.2715 55.0977 16.0645 55.0977 17.0488C55.0977 18.0332 54.3047 18.8262 53.3203 18.8262H46.8262C45.8418 18.8262 45.0488 18.0332 45.0488 17.0488C45.0488 16.0645 45.8418 15.2715 46.8262 15.2715H48.3027V12.2363H21.7109V15.2715H23.1875C24.1719 15.2715 24.9648 16.0645 24.9648 17.0488C24.9648 18.0332 24.1719 18.8262 23.1875 18.8262H16.6934C15.709 18.8262 14.916 18.0332 14.916 17.0488C14.916 16.0645 15.709 15.2715 16.6934 15.2715H18.1699V12.2363H7.91602C3.99219 12.2363 0.820312 15.4082 0.820312 19.332V50.6816C0.820312 54.5918 3.99219 57.7637 7.90234 57.7637H62.0977C66.0078 57.7637 69.1797 54.5918 69.1797 50.6816V19.332C69.1797 15.4082 66.0078 12.2363 62.0977 12.2363ZM20.3164 25.4844C23.6523 25.4844 26.3594 28.1914 26.3594 31.5273C26.3594 34.8633 23.6523 37.5703 20.3164 37.5703C16.9805 37.5703 14.2734 34.8633 14.2734 31.5273C14.2734 28.1914 16.9805 25.4844 20.3164 25.4844ZM7.12305 49.7246C7.12305 43.5176 12.1543 38.4863 18.3613 38.4863H22.2852C28.4922 38.4863 33.5234 43.5176 33.5234 49.7246H7.12305ZM61.373 47.5508H39.5254C38.7051 47.5508 38.0352 46.8809 38.0352 46.0605C38.0352 45.2402 38.7051 44.5703 39.5254 44.5703H61.3867C62.207 44.5703 62.877 45.2402 62.877 46.0605C62.877 46.8809 62.207 47.5508 61.373 47.5508ZM61.373 39.1016H39.5254C38.7051 39.1016 38.0352 38.4316 38.0352 37.6113C38.0352 36.791 38.7051 36.1211 39.5254 36.1211H61.3867C62.207 36.1211 62.877 36.791 62.877 37.6113C62.877 38.4316 62.207 39.1016 61.373 39.1016ZM61.373 30.6523H39.5254C38.7051 30.6523 38.0352 29.9824 38.0352 29.1621C38.0352 28.3418 38.7051 27.6719 39.5254 27.6719H61.3867C62.207 27.6719 62.877 28.3418 62.877 29.1621C62.877 29.9824 62.207 30.6523 61.373 30.6523Z" fill="black"/>
</svg>
