<svg width="40" height="56" viewBox="0 0 40 56" fill="none" xmlns="http://www.w3.org/2000/svg">
<g clip-path="url(#clip0_2469_740)">
<path d="M21.2183 25.2487C21.2183 25.9395 20.9203 26.5604 20.4487 26.9953C21.3601 26.9401 22.2237 26.8043 23.0342 26.5989L21.5219 28.8298L26.3943 32.1275C26.3143 31.8961 26.2693 31.6521 26.2641 31.4006C26.2627 31.3271 26.265 31.2543 26.27 31.182L22.5133 28.6394L26.7836 22.3394L30.5101 24.8614C30.6227 24.645 30.7281 24.4293 30.8266 24.2139L29.5846 23.3733C29.6106 23.3217 29.6353 23.2691 29.6618 23.2178C29.652 22.989 29.6496 22.7603 29.6451 22.5315C30.0658 22.0616 30.4449 21.5801 30.7852 21.0974C30.9199 21.8728 31.0427 22.6709 31.1393 23.4774C31.6226 22.2267 31.8708 20.9952 31.8782 19.7889C31.8786 18.3084 31.4846 17.2949 31.3149 16.9275C31.2702 16.8315 31.2395 16.7742 31.2276 16.753C30.557 15.6625 30.9004 14.2006 32.0024 13.5107C32.3817 13.2732 32.8176 13.1474 33.2634 13.1474C34.0903 13.1474 34.8446 13.5647 35.2827 14.2638C35.509 14.6276 36.6339 16.5965 36.6375 19.7915C36.6463 21.7577 36.1977 24.441 34.4786 27.5474L34.7625 27.7398L30.4927 34.0398L29.6817 33.4907C29.395 33.6301 29.0814 33.71 28.7542 33.7249L29.7319 34.3867C29.341 36.4243 29.0468 38.8583 29.0435 41.5796C29.0426 45.3141 29.6049 49.5931 31.2613 54.0592C31.7056 55.2582 32.8426 55.9998 34.0515 56.0001C34.3944 56.0001 34.743 55.9401 35.0838 55.8143C36.6246 55.2437 37.4108 53.534 36.8402 51.9943C35.4626 48.2786 34.9926 44.7234 34.9922 41.5798C34.9912 38.2206 35.5345 35.3395 36.0732 33.3262C36.1663 32.978 36.2586 32.658 36.3483 32.3638C37.8506 31.9834 39.2118 30.9659 39.7146 28.3802C40.33 23.0977 39.9818 19.9753 38.3625 15.1781C37.1643 11.6962 34.2195 10.5938 32.188 11.1C31.1547 11.3573 30.4168 12.2174 30.0301 13.3112C29.5606 14.324 29.0573 15.8045 28.613 17.3715C28.3825 17.8088 28.1181 18.2575 27.8163 18.6995C27.0156 19.8828 25.9707 21.013 24.635 21.8388C23.408 22.5936 21.935 23.1143 20.043 23.2014C20.7447 23.6149 21.2183 24.3767 21.2183 25.2487Z" fill="black"/>
<path d="M29.5856 10.5587C32.4648 9.88868 34.2554 7.01338 33.5849 4.13654C32.9145 1.25969 30.0369 -0.529299 27.1576 0.140715C24.2784 0.810729 22.4878 3.68603 23.1583 6.56287C23.8287 9.43971 26.7063 11.2287 29.5856 10.5587Z" fill="black"/>
<path d="M27.3149 24.6247L24.6973 28.3701L25.0873 28.6423L27.705 24.8969L27.3149 24.6247Z" fill="black"/>
<path d="M28.9806 25.7559L26.3623 29.5011L26.7529 29.7737L29.3711 26.0286L28.9806 25.7559Z" fill="black"/>
<path d="M36.1613 19.7922C36.1575 16.6308 35.0022 14.7147 34.8789 14.5161C34.3206 13.6256 33.1458 13.3557 32.2549 13.9133C31.3684 14.4681 31.0967 15.6323 31.6428 16.5211C31.6433 16.5216 31.6433 16.5221 31.6438 16.5228C31.6569 16.5456 31.6935 16.6125 31.7471 16.7283C31.9498 17.1677 32.3546 18.2385 32.3541 19.7919C32.3396 22.1099 31.5081 25.6037 27.2705 30.0342C26.5416 30.7918 26.5658 31.996 27.3245 32.7241C27.6931 33.0784 28.1681 33.2546 28.6426 33.2546C29.1428 33.2546 29.6423 33.0589 30.0163 32.6701C34.807 27.7113 36.1763 23.1212 36.1613 19.7922Z" fill="black"/>
<path d="M16.8408 6.56342C17.5112 3.68657 15.7206 0.811274 12.8414 0.14126C9.96219 -0.528753 7.0846 1.26024 6.41415 4.13708C5.7437 7.01393 7.53427 9.88922 10.4135 10.5592C13.2927 11.2292 16.1703 9.44026 16.8408 6.56342Z" fill="black"/>
<path d="M3.65075 32.3633C4.25637 34.3577 5.01262 37.6406 5.00738 41.5796C5.00643 44.7224 4.53621 48.2783 3.15982 51.9945C2.58918 53.5339 3.37542 55.2441 4.91624 55.8141C5.25701 55.9401 5.60587 55.9998 5.94901 55.9998C7.15787 55.9998 8.29463 55.2579 8.73868 54.0587C10.3937 49.5923 10.957 45.3138 10.9565 41.5796C10.9487 35.6239 9.54966 31.0431 8.79341 28.9922C8.6066 27.5959 8.62088 26.1197 8.7432 24.6485C7.66855 23.8179 6.73453 22.8225 5.99232 21.6983C4.29777 19.1156 3.95415 16.6367 3.8849 15.6912L3.88252 15.6565C3.82208 14.3235 4.83986 13.2097 6.15104 13.1502C6.18721 13.1486 6.2241 13.1476 6.25979 13.1476C7.53386 13.1476 8.5771 14.1449 8.63564 15.4175C8.63659 15.4268 8.63944 15.4599 8.64444 15.5062C8.65563 15.6085 8.67752 15.7735 8.71654 15.9856C8.79103 16.3813 8.94047 16.9993 9.22769 17.6901C9.36476 18.0166 9.52182 18.3212 9.68887 18.6153C9.81761 17.9781 9.94302 17.3691 10.0537 16.8046C10.7364 14.4379 9.84307 11.6053 7.81204 11.0995C5.78053 10.5933 2.83572 11.6959 1.63756 15.1776C0.0182121 19.9748 -0.329931 23.0972 0.285447 28.3797C0.788266 30.9649 2.14871 31.9826 3.65075 32.3633Z" fill="black"/>
<path d="M8.24939 16.0726C8.20751 15.8474 8.18443 15.6712 8.17182 15.5597C8.16587 15.5045 8.16253 15.4655 8.16111 15.4443L8.16063 15.4396C8.1128 14.3902 7.22281 13.5779 6.17291 13.6253C5.12253 13.6728 4.30964 14.5621 4.35748 15.6117H4.35652C4.37461 15.8003 4.48907 18.5399 6.39041 21.4371C7.34179 22.8788 8.76816 24.3424 10.8016 25.4125C12.8297 26.4844 15.4317 27.1519 18.6782 27.1519C18.6832 27.1519 18.688 27.1519 18.6932 27.1519C18.7508 27.1519 18.7991 27.1514 18.8395 27.1514C19.8904 27.1514 20.7428 26.2999 20.7428 25.2491C20.7428 24.1985 19.8904 23.3473 18.8395 23.3473C18.781 23.3468 18.7322 23.3473 18.6932 23.3473C15.9497 23.3451 14.0031 22.7973 12.5792 22.048C10.456 20.923 9.38758 19.2956 8.78933 17.8731C8.49497 17.1666 8.33411 16.523 8.24939 16.0726Z" fill="black"/>
</g>
<defs>
<clipPath id="clip0_2469_740">
<rect width="40" height="56" fill="white"/>
</clipPath>
</defs>
</svg>
