<svg width="69" height="69" viewBox="0 0 69 69" fill="none" xmlns="http://www.w3.org/2000/svg">
<path d="M23 40.25C23 40.25 27.3125 46 34.5 46C41.6875 46 46 40.25 46 40.25M48.875 26.565C47.7394 27.9594 46.1869 28.75 44.5625 28.75C42.9381 28.75 41.4287 27.9594 40.25 26.565M28.75 26.565C27.6144 27.9594 26.0619 28.75 24.4375 28.75C22.8131 28.75 21.3037 27.9594 20.125 26.565M63.25 34.5C63.25 50.3782 50.3782 63.25 34.5 63.25C18.6218 63.25 5.75 50.3782 5.75 34.5C5.75 18.6218 18.6218 5.75 34.5 5.75C50.3782 5.75 63.25 18.6218 63.25 34.5Z" stroke="white" stroke-width="4" stroke-linecap="round" stroke-linejoin="round"/>
</svg>
