<svg width="70" height="70" viewBox="0 0 70 70" fill="none" xmlns="http://www.w3.org/2000/svg">
<path d="M43.7497 26.25H43.7788M26.2497 26.25H26.2788M64.1663 35C64.1663 51.1083 51.108 64.1667 34.9997 64.1667C18.8914 64.1667 5.83301 51.1083 5.83301 35C5.83301 18.8917 18.8914 5.83337 34.9997 5.83337C51.108 5.83337 64.1663 18.8917 64.1663 35ZM45.208 26.25C45.208 27.0555 44.5551 27.7084 43.7497 27.7084C42.9443 27.7084 42.2913 27.0555 42.2913 26.25C42.2913 25.4446 42.9443 24.7917 43.7497 24.7917C44.5551 24.7917 45.208 25.4446 45.208 26.25ZM27.708 26.25C27.708 27.0555 27.0551 27.7084 26.2497 27.7084C25.4443 27.7084 24.7913 27.0555 24.7913 26.25C24.7913 25.4446 25.4443 24.7917 26.2497 24.7917C27.0551 24.7917 27.708 25.4446 27.708 26.25ZM34.9997 51.0417C42.2928 51.0417 48.1247 45.6955 48.1247 40.8334H21.8747C21.8747 45.6955 27.7065 51.0417 34.9997 51.0417Z" stroke="white" stroke-width="4" stroke-linecap="round" stroke-linejoin="round"/>
</svg>
