<svg width="70" height="70" viewBox="0 0 70 70" fill="none" xmlns="http://www.w3.org/2000/svg">
<path d="M23.334 40.8334C23.334 40.8334 27.709 46.6667 35.0006 46.6667C42.2923 46.6667 46.6673 40.8334 46.6673 40.8334M43.7506 26.25H43.7798M26.2506 26.25H26.2798M64.1673 35C64.1673 51.1083 51.109 64.1667 35.0006 64.1667C18.8923 64.1667 5.83398 51.1083 5.83398 35C5.83398 18.8917 18.8923 5.83337 35.0006 5.83337C51.109 5.83337 64.1673 18.8917 64.1673 35ZM45.209 26.25C45.209 27.0555 44.5561 27.7084 43.7506 27.7084C42.9452 27.7084 42.2923 27.0555 42.2923 26.25C42.2923 25.4446 42.9452 24.7917 43.7506 24.7917C44.5561 24.7917 45.209 25.4446 45.209 26.25ZM27.709 26.25C27.709 27.0555 27.0561 27.7084 26.2506 27.7084C25.4452 27.7084 24.7923 27.0555 24.7923 26.25C24.7923 25.4446 25.4452 24.7917 26.2506 24.7917C27.0561 24.7917 27.709 25.4446 27.709 26.25Z" stroke="white" stroke-width="4" stroke-linecap="round" stroke-linejoin="round"/>
</svg>
