<svg width="70" height="70" viewBox="0 0 70 70" fill="none" xmlns="http://www.w3.org/2000/svg">
<path d="M23.333 40.8334C23.333 40.8334 27.708 46.6667 34.9997 46.6667C42.2913 46.6667 46.6663 40.8334 46.6663 40.8334M43.7497 26.25H43.7788M23.333 26.25H29.1663M64.1663 35C64.1663 51.1083 51.108 64.1667 34.9997 64.1667C18.8914 64.1667 5.83301 51.1083 5.83301 35C5.83301 18.8917 18.8914 5.83337 34.9997 5.83337C51.108 5.83337 64.1663 18.8917 64.1663 35ZM45.208 26.25C45.208 27.0555 44.5551 27.7084 43.7497 27.7084C42.9443 27.7084 42.2913 27.0555 42.2913 26.25C42.2913 25.4446 42.9443 24.7917 43.7497 24.7917C44.5551 24.7917 45.208 25.4446 45.208 26.25Z" stroke="white" stroke-width="4" stroke-linecap="round" stroke-linejoin="round"/>
</svg>
