<svg width="27" height="41" viewBox="0 0 27 41" fill="none" xmlns="http://www.w3.org/2000/svg">
<path d="M14.5344 18.1958C8.51375 16.9073 6.5776 15.5751 6.5776 13.5004C6.5776 11.12 9.25638 9.46022 13.7387 9.46022C18.4597 9.46022 20.2102 11.3165 20.3694 14.0464H26.2308C26.0452 10.2901 23.2603 6.83953 17.7171 5.72574V0.942993H9.76031V5.66022C4.61493 6.57746 0.477406 9.32918 0.477406 13.5441C0.477406 18.5889 5.54322 21.1004 12.943 22.5636C19.5737 23.874 20.8998 25.7958 20.8998 27.8268C20.8998 29.3337 19.6002 31.736 13.7387 31.736C8.27505 31.736 6.12672 29.7268 5.83497 27.1498H0C0.318271 31.9326 4.66798 34.6188 9.76031 35.5142V40.2533H17.7171V35.5579C22.889 34.7498 27 32.282 27 27.805C27 21.6027 20.555 19.4843 14.5344 18.1958Z" fill="#FFAB49"/>
</svg>
