<svg width="189" height="50" viewBox="0 0 189 50" fill="none" xmlns="http://www.w3.org/2000/svg">
<path d="M188.646 44.4758C188.646 47.2322 186.241 49.428 183.223 49.428H5.42351C2.45593 49.428 0 47.1855 0 44.4758V4.95214C0 2.24248 2.45593 0 5.42351 0H183.171C186.19 0 188.595 2.24248 188.595 4.95214L188.646 44.4758Z" fill="white"/>
<path d="M188.646 44.4758C188.646 47.2322 186.241 49.428 183.223 49.428H5.42351C2.45593 49.428 0 47.1855 0 44.4758V4.95214C0 2.24248 2.45593 0 5.42351 0H183.171C186.19 0 188.595 2.24248 188.595 4.95214L188.646 44.4758Z" fill="#FFAB49"/>
<path d="M94.9633 27.5171C91.6376 27.5171 89.0281 29.8062 89.0281 32.9364C89.0281 35.9731 91.6376 38.3557 94.9633 38.3557C98.289 38.3557 100.898 36.0665 100.898 32.9364C100.898 29.6661 98.289 27.5171 94.9633 27.5171ZM94.9633 36.1132C93.1725 36.1132 91.6376 34.7117 91.6376 32.8429C91.6376 30.9275 93.1725 29.5727 94.9633 29.5727C96.7541 29.5727 98.289 30.8341 98.289 32.8429C98.289 34.7117 96.7541 36.1132 94.9633 36.1132ZM82.0697 27.5171C78.7439 27.5171 76.1345 29.8062 76.1345 32.9364C76.1345 35.9731 78.7439 38.3557 82.0697 38.3557C85.3954 38.3557 88.0048 36.1132 88.0048 32.9364C88.0048 29.6661 85.3954 27.5171 82.0697 27.5171ZM82.0697 36.1132C80.2789 36.1132 78.7439 34.7117 78.7439 32.8429C78.7439 30.9275 80.2789 29.5727 82.0697 29.5727C83.8604 29.5727 85.3954 30.8341 85.3954 32.8429C85.3954 34.7117 83.8604 36.1132 82.0697 36.1132ZM66.7201 29.1522V31.4414H72.6553C72.5018 32.7028 71.939 33.7306 71.2738 34.3379C70.4552 35.0854 69.0737 35.9731 66.7201 35.9731C62.985 35.9731 60.2221 33.3101 60.2221 29.8997C60.2221 26.4892 63.1385 23.8263 66.7201 23.8263C68.6644 23.8263 70.1993 24.5738 71.2738 25.4614L73.0646 23.8263C71.5296 22.5649 69.5854 21.5371 66.8224 21.5371C61.8594 21.5371 57.5615 25.3213 57.5615 29.8997C57.5615 34.4781 61.8594 38.2623 66.8224 38.2623C69.5854 38.2623 71.5296 37.5148 73.1669 35.8796C74.8042 34.3846 75.367 32.2356 75.367 30.5537C75.367 30.0398 75.367 29.5259 75.2135 29.1522H66.7201ZM129.551 30.9275C128.988 29.6661 127.607 27.5171 124.588 27.5171C121.518 27.5171 119.062 29.6661 119.062 32.9364C119.062 35.9731 121.569 38.3557 124.895 38.3557C127.504 38.3557 129.193 36.8607 129.756 35.9731L127.811 34.7117C127.095 35.5993 126.276 36.2067 124.895 36.2067C123.513 36.2067 122.695 35.6928 121.979 34.5715L129.858 31.5348L129.551 30.9275ZM121.518 32.7028C121.518 30.6939 123.309 29.5259 124.588 29.5259C125.56 29.5259 126.532 30.0398 126.788 30.6472L121.518 32.7028ZM115.02 37.8885H117.629V22.051H115.02V37.8885ZM110.876 28.6383C110.159 27.9842 109.085 27.3769 107.703 27.3769C104.787 27.3769 102.024 29.7595 102.024 32.7962C102.024 35.8329 104.634 38.1221 107.703 38.1221C109.085 38.1221 110.211 37.4681 110.773 36.8607H110.927V37.6082C110.927 39.6171 109.699 40.7851 107.755 40.7851C106.22 40.7851 105.145 39.7572 104.838 38.8696L102.638 39.7572C103.354 41.1588 104.992 42.9341 107.908 42.9341C110.978 42.9341 113.434 41.299 113.434 37.3746V27.7506H110.927L110.876 28.6383ZM107.806 36.1132C106.015 36.1132 104.48 34.7117 104.48 32.8429C104.48 30.9275 106.015 29.5727 107.806 29.5727C109.597 29.5727 110.978 30.9742 110.978 32.8429C111.029 34.7117 109.648 36.1132 107.806 36.1132ZM141.626 22.051H135.384V37.8418H137.993V31.9086H141.575C144.491 31.9086 147.254 29.9931 147.254 26.9564C147.254 23.9197 144.491 22.051 141.626 22.051ZM141.728 29.6661H137.993V24.2001H141.728C143.673 24.2001 144.798 25.695 144.798 26.863C144.645 28.2645 143.57 29.6661 141.728 29.6661ZM157.692 27.3769C155.748 27.3769 153.803 28.1244 153.138 29.7595L155.492 30.6472C156.055 29.7595 156.873 29.5259 157.845 29.5259C159.227 29.5259 160.455 30.2734 160.608 31.5348V31.675C160.199 31.4414 159.073 31.0209 157.999 31.0209C155.492 31.0209 153.036 32.2823 153.036 34.5715C153.036 36.7206 155.134 38.1221 157.334 38.1221C159.124 38.1221 159.943 37.3746 160.659 36.6271H160.813V37.8885H163.32V31.8151C162.911 29.012 160.557 27.3769 157.692 27.3769ZM157.385 36.1132C156.566 36.1132 155.287 35.7395 155.287 34.7117C155.287 33.4503 156.822 33.0765 158.05 33.0765C159.176 33.0765 159.687 33.3101 160.404 33.5904C160.148 35.0854 158.766 36.1132 157.385 36.1132ZM171.916 27.7506L168.999 34.5715H168.846L165.776 27.7506H163.013L167.567 37.3746L164.957 42.7005H167.567L174.628 27.7974H171.916V27.7506ZM148.687 37.8885H151.296V22.051H148.687V37.8885Z" fill="white"/>
<path d="M19.2894 9.34375C18.8801 9.7175 18.7266 10.3716 18.7266 11.119V39.0566C18.7266 39.8041 18.9824 40.4581 19.4429 40.8319L19.5964 40.972L36.7879 25.2747V25.0411L19.2894 9.34375Z" fill="white"/>
<path d="M19.5965 41.2056L19.3407 40.972C18.8802 40.5515 18.5732 39.8507 18.5732 39.1033V11.119C18.5732 10.2313 18.7779 9.62401 19.1872 9.25026L19.3407 9.11011L36.9927 24.9476V25.3214L19.5965 41.2056ZM19.3407 9.57729C19.0849 9.90432 18.9826 10.4182 18.9826 11.119V39.0565C18.9826 39.7573 19.2384 40.3179 19.5965 40.6917L36.5834 25.1812V25.0878L19.3407 9.57729Z" fill="white"/>
<path d="M42.3141 30.6004L36.6348 25.4147V25.041L42.3141 19.8552L42.4676 19.9954L49.2726 23.546C51.2169 24.5738 51.2169 26.2089 49.2726 27.19L42.3141 30.6004Z" fill="white"/>
<path d="M42.2625 30.7873L36.4297 25.4615V24.9476L42.3137 19.575L42.5695 19.8085L49.3233 23.3591C50.3466 23.873 50.8583 24.5738 50.8583 25.3213C50.8583 26.0688 50.2955 26.7696 49.3233 27.2835L42.2625 30.7873ZM36.7878 25.3213L42.3137 30.3669L49.1187 27.0032C49.9885 26.536 50.449 25.9286 50.5001 25.3213C50.5001 24.714 50.0396 24.1066 49.1187 23.6394L42.3137 20.0889L36.7878 25.0877V25.3213Z" fill="white"/>
<path d="M42.4167 30.4604L36.635 25.1345L19.29 40.972C20.0064 41.6261 20.9273 41.6261 22.2065 41.1122L42.4167 30.4604Z" fill="white"/>
<path d="M20.6203 41.626C20.0575 41.626 19.5458 41.4392 19.1877 41.0654L19.0342 40.9253L36.5838 24.9009L42.7237 30.5071L22.3088 41.2523C21.6948 41.4859 21.132 41.626 20.6203 41.626Z" fill="white"/>
<path d="M42.4167 19.8553L22.2065 9.34366C20.9785 8.6896 20.0064 8.82975 19.29 9.48381L36.5839 25.1812L42.4167 19.8553Z" fill="white"/>
<path d="M36.635 25.368L36.4815 25.2279L19.0342 9.4838L19.1877 9.34365C19.7505 8.82974 20.7226 8.40928 22.3088 9.20349L42.7237 19.8085L36.635 25.368ZM19.597 9.4838L36.635 24.9008L42.1609 19.8553L22.1041 9.4838C21.0808 8.9699 20.2621 8.9699 19.597 9.4838Z" fill="white"/>
<path d="M63.24 7.94216C63.854 8.22247 64.3656 8.64293 64.6726 9.20355C65.0308 9.76417 65.1843 10.3715 65.1843 11.0723C65.1843 11.7731 65.0308 12.4271 64.6726 12.941C64.3145 13.4549 63.854 13.8754 63.24 14.2024C62.626 14.4827 61.9097 14.6229 61.091 14.6229H58.3281V7.47498H61.0399C61.9097 7.47498 62.626 7.61513 63.24 7.94216ZM62.933 12.8009C63.3935 12.3804 63.5981 11.8198 63.5981 11.0723C63.5981 10.3248 63.3935 9.76417 62.933 9.34371C62.4725 8.92324 61.8585 8.73637 61.0399 8.73637H59.9142V13.4549H61.0399C61.8074 13.4082 62.4725 13.2213 62.933 12.8009Z" fill="white"/>
<path d="M66.4638 8.03555C66.2592 7.89539 66.208 7.6618 66.208 7.42821C66.208 7.19462 66.3103 7.00774 66.4638 6.82087C66.6685 6.68072 66.8732 6.58728 67.129 6.58728C67.3848 6.58728 67.6406 6.68072 67.7941 6.82087C67.9988 6.96103 68.05 7.19462 68.05 7.42821C68.05 7.6618 67.9476 7.84867 67.7941 8.03555C67.6406 8.22242 67.3848 8.26914 67.129 8.26914C66.8732 8.26914 66.6685 8.22242 66.4638 8.03555ZM67.9476 8.96991V14.6228H66.3615V8.96991H67.9476Z" fill="white"/>
<path d="M70.4547 14.4827C70.0454 14.2959 69.7384 14.109 69.4826 13.782C69.2267 13.5016 69.1244 13.1746 69.0732 12.8476H70.6594C70.7105 13.0812 70.8129 13.2681 71.0175 13.4082C71.2222 13.5484 71.478 13.6418 71.785 13.6418C72.092 13.6418 72.2966 13.5951 72.5013 13.5016C72.6548 13.4082 72.7571 13.2681 72.7571 13.0812C72.7571 12.8943 72.6548 12.7542 72.4501 12.6607C72.2455 12.5673 71.9385 12.4738 71.478 12.3804C71.0175 12.287 70.6594 12.1935 70.3524 12.0534C70.0454 11.9599 69.7896 11.7731 69.5849 11.5395C69.3802 11.3059 69.2779 11.0256 69.2779 10.6518C69.2779 10.3248 69.3802 10.0445 69.5849 9.8109C69.7896 9.53059 70.0454 9.34372 70.4547 9.20356C70.8129 9.06341 71.2733 8.96997 71.7338 8.96997C72.4501 8.96997 73.0641 9.15684 73.5246 9.48387C73.9851 9.8109 74.1898 10.2781 74.2409 10.8387H72.7571C72.7571 10.6051 72.6548 10.4182 72.4501 10.3248C72.2455 10.1846 72.0408 10.1379 71.7338 10.1379C71.4268 10.1379 71.2222 10.1846 71.0687 10.2781C70.9152 10.3715 70.864 10.5117 70.864 10.6985C70.864 10.8854 70.9664 11.0256 71.171 11.119C71.3757 11.2124 71.6827 11.3059 72.1432 11.3993C72.6036 11.4928 72.9618 11.5862 73.2688 11.7264C73.5758 11.8198 73.8316 12.0067 74.0363 12.2403C74.2409 12.4738 74.3433 12.7542 74.3433 13.1279C74.3433 13.4549 74.2409 13.7352 74.0363 14.0155C73.8316 14.2959 73.5758 14.4827 73.1665 14.6229C72.8083 14.763 72.3478 14.8565 71.8873 14.8565C71.3245 14.7163 70.864 14.6229 70.4547 14.4827Z" fill="white"/>
<path d="M77.9755 9.11002C78.3336 8.92315 78.7429 8.82971 79.2034 8.82971C79.7151 8.82971 80.2267 8.96987 80.6361 9.20346C81.0454 9.43705 81.4035 9.76408 81.6594 10.2313C81.9152 10.6517 82.0175 11.1656 82.0175 11.773C82.0175 12.3336 81.9152 12.8475 81.6594 13.3147C81.4035 13.7819 81.0454 14.1089 80.6361 14.3425C80.2267 14.5761 79.7151 14.7162 79.2034 14.7162C78.7429 14.7162 78.3336 14.6228 77.9755 14.4826C77.6173 14.2958 77.3615 14.1089 77.1056 13.8286V17.3324H75.5195V8.96987H77.1056V9.8108C77.3615 9.53049 77.6173 9.2969 77.9755 9.11002ZM80.1756 10.8853C80.0221 10.6517 79.8174 10.4649 79.5616 10.3247C79.3058 10.1845 79.0499 10.1378 78.7429 10.1378C78.4359 10.1378 78.1801 10.1845 77.9243 10.3247C77.6685 10.4649 77.4638 10.6517 77.3103 10.8853C77.1568 11.1189 77.1056 11.4459 77.1056 11.773C77.1056 12.1 77.1568 12.427 77.3103 12.6606C77.4638 12.8942 77.6685 13.1278 77.9243 13.2212C78.1801 13.3614 78.4359 13.4081 78.7429 13.4081C79.0499 13.4081 79.3058 13.3614 79.5616 13.2212C79.8174 13.0811 80.0221 12.8942 80.1756 12.6606C80.3291 12.427 80.3802 12.1 80.3802 11.773C80.4314 11.4459 80.3291 11.1189 80.1756 10.8853Z" fill="white"/>
<path d="M84.3201 14.3425C83.8596 14.1089 83.4503 13.7351 83.1945 13.3147C82.9387 12.8942 82.7852 12.3803 82.7852 11.773C82.7852 11.2123 82.9387 10.6984 83.1945 10.2313C83.4503 9.8108 83.8596 9.43705 84.3201 9.20346C84.7806 8.96987 85.3434 8.82971 85.9574 8.82971C86.5714 8.82971 87.083 8.96987 87.5947 9.20346C88.0552 9.43705 88.4645 9.8108 88.7203 10.2313C88.9761 10.6517 89.1296 11.1656 89.1296 11.773C89.1296 12.3336 88.9761 12.8475 88.7203 13.3147C88.4133 13.7351 88.0552 14.1089 87.5435 14.3425C87.0319 14.5761 86.5202 14.7162 85.9062 14.7162C85.2922 14.7162 84.7806 14.5761 84.3201 14.3425ZM86.7249 13.268C86.9807 13.1278 87.1854 12.9409 87.3389 12.7073C87.4924 12.4737 87.5435 12.1467 87.5435 11.773C87.5435 11.2123 87.39 10.8386 87.083 10.5116C86.776 10.2313 86.4179 10.0911 85.9574 10.0911C85.4969 10.0911 85.1388 10.2313 84.8318 10.5116C84.5248 10.7919 84.3713 11.2123 84.3713 11.773C84.3713 12.3336 84.5248 12.7073 84.8318 13.0344C85.1388 13.3147 85.4969 13.4548 85.9574 13.4548C86.2132 13.4548 86.469 13.4081 86.7249 13.268Z" fill="white"/>
<path d="M95.5255 9.53059C95.986 9.95106 96.1906 10.5584 96.1906 11.3059V14.6229H94.6557V11.4928C94.6557 11.0256 94.5534 10.6985 94.2975 10.465C94.0417 10.2314 93.7347 10.0912 93.2742 10.0912C92.8649 10.0912 92.5067 10.2314 92.2509 10.465C91.9951 10.6985 91.8928 11.0723 91.8928 11.4928V14.6229H90.3066V8.96997H91.8928V9.67075C92.0974 9.43715 92.3532 9.25028 92.7114 9.11013C93.0184 8.96997 93.3766 8.92325 93.7859 8.92325C94.451 8.87654 95.065 9.11013 95.5255 9.53059Z" fill="white"/>
<path d="M97.7763 8.03555C97.5717 7.89539 97.5205 7.6618 97.5205 7.42821C97.5205 7.19462 97.6228 7.00774 97.7763 6.82087C97.981 6.68072 98.1856 6.58728 98.4415 6.58728C98.6973 6.58728 98.9531 6.68072 99.1066 6.82087C99.3113 6.96103 99.3625 7.19462 99.3625 7.42821C99.3625 7.6618 99.2601 7.84867 99.1066 8.03555C98.9531 8.22242 98.6973 8.26914 98.4415 8.26914C98.2368 8.26914 97.981 8.22242 97.7763 8.03555ZM99.2601 8.96991V14.6228H97.674V8.96991H99.2601Z" fill="white"/>
<path d="M103.2 9.11005C103.558 8.92317 103.967 8.87646 104.428 8.87646C104.939 8.87646 105.451 9.01661 105.86 9.2502C106.27 9.48379 106.628 9.81082 106.884 10.278C107.139 10.6985 107.242 11.2124 107.242 11.8197C107.242 12.3803 107.139 12.8942 106.884 13.3614C106.628 13.8286 106.27 14.1556 105.86 14.3892C105.451 14.6228 104.939 14.763 104.428 14.763C103.967 14.763 103.558 14.6695 103.2 14.5294C102.842 14.3425 102.586 14.1556 102.381 13.8753V14.6695H100.795V7.05444H102.381V9.81082C102.586 9.53051 102.842 9.29692 103.2 9.11005ZM105.4 10.8853C105.246 10.6518 105.042 10.4649 104.786 10.3247C104.53 10.1846 104.274 10.1379 103.967 10.1379C103.66 10.1379 103.404 10.1846 103.149 10.3247C102.893 10.4649 102.688 10.6518 102.535 10.8853C102.381 11.1189 102.33 11.446 102.33 11.773C102.33 12.1 102.381 12.427 102.535 12.6606C102.688 12.8942 102.893 13.1278 103.149 13.2213C103.404 13.3614 103.66 13.4081 103.967 13.4081C104.274 13.4081 104.53 13.3614 104.786 13.2213C105.042 13.0811 105.246 12.8942 105.4 12.6606C105.553 12.427 105.604 12.1 105.604 11.773C105.656 11.446 105.553 11.1189 105.4 10.8853Z" fill="white"/>
<path d="M109.954 7.05444V14.6228H108.368V7.05444H109.954Z" fill="white"/>
<path d="M117.219 12.2401H112.666C112.717 12.6606 112.87 12.9876 113.126 13.2212C113.382 13.4548 113.74 13.5483 114.149 13.5483C114.712 13.5483 115.122 13.3147 115.377 12.8475H117.066C116.912 13.4081 116.554 13.8286 116.043 14.2023C115.531 14.5761 114.917 14.7162 114.149 14.7162C113.535 14.7162 113.024 14.5761 112.563 14.3425C112.103 14.1089 111.745 13.7351 111.438 13.3147C111.182 12.8942 111.028 12.3803 111.028 11.773C111.028 11.1656 111.182 10.6517 111.438 10.2313C111.693 9.8108 112.052 9.43705 112.512 9.20346C112.973 8.96987 113.535 8.82971 114.149 8.82971C114.763 8.82971 115.275 8.92315 115.736 9.15674C116.196 9.39033 116.554 9.71736 116.81 10.1378C117.066 10.5583 117.219 11.0722 117.219 11.5861C117.27 11.8664 117.27 12.0533 117.219 12.2401ZM115.633 11.2591C115.633 10.8853 115.48 10.605 115.173 10.3714C114.866 10.1378 114.559 10.0444 114.149 10.0444C113.74 10.0444 113.433 10.1378 113.177 10.3714C112.921 10.605 112.768 10.8853 112.666 11.2591H115.633Z" fill="white"/>
<path d="M122.08 14.4827C121.67 14.2959 121.363 14.109 121.108 13.782C120.852 13.5016 120.749 13.1746 120.698 12.8476H122.284C122.336 13.0812 122.438 13.2681 122.643 13.4082C122.847 13.5484 123.103 13.6418 123.41 13.6418C123.717 13.6418 123.922 13.5951 124.126 13.5016C124.28 13.4082 124.382 13.2681 124.382 13.0812C124.382 12.8943 124.28 12.7542 124.075 12.6607C123.87 12.5673 123.564 12.4738 123.103 12.3804C122.643 12.287 122.284 12.1935 121.977 12.0534C121.67 11.9599 121.415 11.7731 121.21 11.5395C121.005 11.3059 120.903 11.0256 120.903 10.6518C120.903 10.3248 121.005 10.0445 121.21 9.8109C121.415 9.53059 121.67 9.34372 122.08 9.20356C122.438 9.06341 122.898 8.96997 123.359 8.96997C124.075 8.96997 124.689 9.15684 125.15 9.48387C125.61 9.8109 125.815 10.2781 125.866 10.8387H124.331C124.331 10.6051 124.229 10.4182 124.024 10.3248C123.819 10.1846 123.615 10.1379 123.308 10.1379C123.001 10.1379 122.796 10.1846 122.643 10.2781C122.489 10.3715 122.438 10.5117 122.438 10.6985C122.438 10.8854 122.54 11.0256 122.745 11.119C122.95 11.2124 123.257 11.3059 123.717 11.3993C124.177 11.4928 124.536 11.5862 124.843 11.7264C125.15 11.8198 125.405 12.0067 125.61 12.2403C125.815 12.4738 125.917 12.7542 125.917 13.1279C125.917 13.4549 125.815 13.7352 125.61 14.0155C125.405 14.2959 125.15 14.4827 124.74 14.6229C124.382 14.763 123.922 14.8565 123.461 14.8565C122.95 14.7163 122.489 14.6229 122.08 14.4827Z" fill="white"/>
<path d="M133.03 8.96994V14.6228H131.443V13.9221C131.239 14.1557 130.983 14.3425 130.676 14.4827C130.369 14.6228 130.011 14.6696 129.601 14.6696C129.141 14.6696 128.68 14.5761 128.322 14.3893C127.964 14.2024 127.657 13.9221 127.453 13.5483C127.248 13.1746 127.146 12.7541 127.146 12.2402V8.92322H128.732V12.0533C128.732 12.5205 128.834 12.8476 129.09 13.0811C129.346 13.3147 129.653 13.4549 130.113 13.4549C130.522 13.4549 130.881 13.3147 131.136 13.0811C131.392 12.8476 131.495 12.4738 131.495 12.0533V8.92322H133.03V8.96994Z" fill="white"/>
<path d="M136.918 9.15681C137.225 8.96994 137.634 8.92322 138.044 8.92322V10.4182H137.634C137.123 10.4182 136.765 10.5116 136.509 10.7452C136.253 10.9788 136.151 11.3059 136.151 11.8665V14.6696H134.564V8.96994H136.151V9.85758C136.355 9.53056 136.611 9.29696 136.918 9.15681Z" fill="white"/>
<path d="M41.9562 30.9276L18.8295 9.90432L18.7783 9.8576C18.7783 9.53057 19.3411 9.11011 19.3411 9.11011L42.9283 30.4604L41.9562 30.9276Z" fill="#FFAB49"/>
<path d="M42.7235 19.6217L19.1875 41.0654" stroke="#FFAB49" stroke-width="2" stroke-miterlimit="10"/>
</svg>
