<svg width="64" height="44" viewBox="0 0 64 44" fill="none" xmlns="http://www.w3.org/2000/svg">
<path d="M1.12932 35.1858C0.993142 35.714 0.920898 36.2644 0.920898 36.8303C0.920898 40.7801 4.42468 43.9822 8.74781 43.9822C12.9044 43.9822 16.3049 41.0212 16.5596 37.2817L13.917 36.924C13.8632 39.4866 11.5643 41.5556 8.74781 41.5556C5.89687 41.5556 3.57694 39.4359 3.57694 36.8304C3.57694 36.3843 3.64498 35.9536 3.77102 35.5444L1.12932 35.1858Z" fill="black"/>
<path d="M55.058 34.7237C54.7001 34.4594 54.274 34.306 53.8165 34.306C53.1653 34.306 52.5771 34.6168 52.1585 35.1159C51.8995 35.4251 51.7053 35.8067 51.6016 36.2317C51.5462 36.4584 51.5166 36.6976 51.5166 36.9448C51.5166 38.4024 52.5462 39.5839 53.8165 39.5839C55.0866 39.5839 56.1162 38.4024 56.1162 36.9448C56.1162 36.6976 56.0866 36.4584 56.0312 36.2317C55.8776 35.6026 55.5258 35.0684 55.058 34.7237Z" fill="black"/>
<path d="M11.0391 37.1287C11.0391 37.0019 11.0298 36.8768 11.0126 36.755L6.6663 36.0656C6.60805 36.1932 6.56069 36.3266 6.52413 36.4658C6.469 36.6771 6.43945 36.8991 6.43945 37.1287C6.43945 38.4843 7.46859 39.5831 8.73926 39.5831C10.0099 39.5831 11.0391 38.4843 11.0391 37.1287Z" fill="black"/>
<path d="M58.561 24.1832C58.5979 21.1993 57.9349 18.672 55.6614 18.3975C49.8246 17.6935 38.8935 17.1907 39.4248 20.8118C39.9552 24.433 44.6247 28.5576 43.4573 30.5336C42.2899 32.5088 25.6287 32.38 23.0816 30.972C20.5345 29.564 17.4571 19.504 19.7918 13.2657C20.6041 11.0934 20.8497 9.19207 20.8264 7.63399H23.3479C23.6009 7.91077 23.9735 8.08665 24.3902 8.08665H29.1304C29.8924 8.08665 30.5101 7.50117 30.5101 6.77898C30.5101 6.05671 29.8924 5.47123 29.1304 5.47123H24.3902C23.9735 5.47123 23.6009 5.64711 23.3479 5.92389H20.6235C20.4014 5.20646 19.9774 4.57472 19.415 4.0841C19.2279 3.92102 19.0265 3.77385 18.8107 3.64414C18.402 1.52341 16.9895 0 15.2633 0C13.2072 0 11.5967 2.1606 11.5967 4.91783C11.5967 7.27808 12.7758 9.20002 14.4048 9.70509C13.5638 10.7496 12.4502 11.9246 10.9832 13.2356C5.82182 17.8463 4.98932 23.5127 5.04141 26.9269C2.69271 27.852 0.822281 29.7335 0.0495351 32.1352C-0.152158 32.7618 0.28352 33.412 0.967141 33.5085L1.3698 33.5653L4.15272 33.9574L5.64311 34.1675L9.14277 34.6607L13.4967 35.2748L16.2771 35.6661L16.6807 35.723C17.3601 35.8189 17.9802 35.3239 17.9799 34.6728C17.9799 34.6687 17.9799 34.6647 17.9799 34.6606H46.1378C45.9515 35.2914 45.8516 35.9564 45.8516 36.6438C45.8516 40.6968 49.3176 43.9823 53.5936 43.9823C57.8686 43.9823 61.3346 40.6968 61.3346 36.6438C61.3346 35.9564 61.2347 35.2914 61.0485 34.6606H61.15C62.0185 34.6606 62.7956 34.138 63.0726 33.3567C63.3336 32.6217 63.4746 31.8349 63.4746 31.0164C63.4747 27.9102 61.4378 25.2539 58.561 24.1832ZM15.8566 7.59465C15.6644 7.75773 15.4604 7.84679 15.2632 7.84679C14.523 7.84679 13.6947 6.59385 13.6947 4.91774C13.6947 3.24163 14.523 1.98861 15.2632 1.98861C15.9925 1.98861 16.8082 3.20661 16.8309 4.84692C16.8317 4.87001 16.8317 4.89388 16.8317 4.91774C16.8317 6.14681 16.3861 7.14838 15.8566 7.59465ZM53.5936 41.4853C50.7772 41.4853 48.4859 39.3136 48.4859 36.6439C48.4859 35.9384 48.6462 35.2669 48.9341 34.6608H49.013C48.9988 34.6369 48.9836 34.6122 48.9694 34.5884C49.7868 32.9441 51.5526 31.8033 53.5936 31.8033C54.9699 31.8033 56.2203 32.3212 57.1394 33.1637C57.6034 33.5885 57.9828 34.096 58.2514 34.6608C58.5401 35.2669 58.7003 35.9384 58.7003 36.6439C58.7003 39.3136 56.4092 41.4853 53.5936 41.4853Z" fill="black"/>
<path d="M26.6777 30.565C28.2816 30.6944 30.3662 30.7866 32.8495 30.7866C38.1619 30.7866 41.4528 30.3469 42.3164 30C42.312 29.8896 42.2656 29.6532 42.0327 29.2184C41.7278 28.6528 41.233 27.9817 40.7021 27.269C37.5891 29.1213 32.7601 28.7042 30.0973 28.8491C28.1467 28.9553 27.1683 29.775 26.6777 30.565Z" fill="black"/>
<path d="M56.1152 16.6359L55.0868 15.4661C54.4273 14.7164 53.4095 14.2464 52.2991 14.178C50.4385 14.0633 47.461 13.971 45.076 14.3174C42.9044 14.6331 41.8767 15.79 41.3965 16.7125C42.9371 16.3107 45.0473 16.1132 47.7581 16.1132C50.9769 16.1132 54.046 16.3886 55.5892 16.5526C55.7627 16.571 55.9385 16.5983 56.1152 16.6359Z" fill="black"/>
</svg>
