<svg width="20" height="20" viewBox="0 0 20 20" fill="none" xmlns="http://www.w3.org/2000/svg">
<path d="M10.0002 6.74998C8.20526 6.74998 6.75018 8.20506 6.75018 9.99998C6.75018 11.7949 8.20526 13.25 10.0002 13.25C11.7951 13.25 13.2502 11.7949 13.2502 9.99998C13.2502 8.20506 11.7951 6.74998 10.0002 6.74998Z" fill="black"/>
<path fill-rule="evenodd" clip-rule="evenodd" d="M4.76972 1.08145C8.21784 0.696075 11.7825 0.696075 15.2307 1.08145C17.1291 1.29363 18.6603 2.78941 18.8831 4.69446C19.2954 8.21946 19.2954 11.7805 18.8831 15.3055C18.6603 17.2106 17.1291 18.7063 15.2307 18.9185C11.7825 19.3039 8.21784 19.3039 4.76972 18.9185C2.87132 18.7063 1.34013 17.2106 1.11732 15.3055C0.705035 11.7805 0.705035 8.21946 1.11732 4.69446C1.34013 2.7894 2.87132 1.29363 4.76972 1.08145ZM15.0002 3.99998C14.4479 3.99998 14.0002 4.4477 14.0002 4.99998C14.0002 5.55227 14.4479 5.99998 15.0002 5.99998C15.5525 5.99998 16.0002 5.55227 16.0002 4.99998C16.0002 4.4477 15.5525 3.99998 15.0002 3.99998ZM5.25018 9.99998C5.25018 7.37663 7.37683 5.24998 10.0002 5.24998C12.6235 5.24998 14.7502 7.37663 14.7502 9.99998C14.7502 12.6233 12.6235 14.75 10.0002 14.75C7.37683 14.75 5.25018 12.6233 5.25018 9.99998Z" fill="black"/>
</svg>
