<svg width="69" height="43" viewBox="0 0 69 43" fill="none" xmlns="http://www.w3.org/2000/svg">
<path d="M1.22656 33.6533C1.07853 34.1555 1 34.6789 1 35.2169C1 38.9725 4.80879 42.0172 9.50824 42.0172C14.0267 42.0172 17.7232 39.2017 18 35.6462L15.1274 35.306C15.0689 37.7426 12.5699 39.7099 9.50824 39.7099C6.40913 39.7099 3.88724 37.6944 3.88724 35.217C3.88724 34.7929 3.96121 34.3833 4.09822 33.9943L1.22656 33.6533Z" fill="#FFAB49"/>
<path d="M59.8497 33.214C59.4606 32.9627 58.9974 32.8169 58.5001 32.8169C57.7922 32.8169 57.1528 33.1123 56.6978 33.5869C56.4162 33.881 56.2051 34.2438 56.0924 34.6478C56.0322 34.8634 56 35.0909 56 35.3259C56 36.7119 57.1193 37.8352 58.5001 37.8352C59.8807 37.8352 61 36.7119 61 35.3259C61 35.0909 60.9678 34.8634 60.9076 34.6478C60.7406 34.0497 60.3581 33.5418 59.8497 33.214Z" fill="#FFAB49"/>
<path d="M12 35.5005C12 35.38 11.9899 35.261 11.9713 35.1452L7.24659 34.4897C7.18327 34.611 7.13179 34.7378 7.09205 34.8702C7.03212 35.0711 7 35.2822 7 35.5005C7 36.7895 8.11872 37.8342 9.5 37.8342C10.8813 37.8342 12 36.7895 12 35.5005Z" fill="#FFAB49"/>
<path d="M63.6587 23.1917C63.6988 20.3546 62.9781 17.9515 60.5067 17.6906C54.1618 17.0212 42.2792 16.5431 42.8567 19.9862C43.4332 23.4292 48.5092 27.351 47.2402 29.2299C45.9712 31.1079 27.8596 30.9854 25.0908 29.6467C22.3221 28.3079 18.9767 18.7426 21.5147 12.8111C22.3976 10.7457 22.6647 8.9378 22.6393 7.45634H25.3803C25.6553 7.71951 26.0604 7.88674 26.5134 7.88674H31.6662C32.4945 7.88674 33.166 7.33005 33.166 6.64338C33.166 5.95662 32.4945 5.39993 31.6662 5.39993H26.5134C26.0604 5.39993 25.6553 5.56716 25.3803 5.83034H22.4187C22.1773 5.14818 21.7164 4.54751 21.105 4.08101C20.9016 3.92595 20.6827 3.78602 20.4482 3.66269C20.0039 1.64625 18.4685 0.197754 16.5919 0.197754C14.3569 0.197754 12.6062 2.2521 12.6062 4.87375C12.6062 7.11793 13.8879 8.94536 15.6587 9.42559C14.7445 10.4188 13.534 11.5359 11.9393 12.7825C6.3286 17.1665 5.42364 22.5542 5.48026 25.8005C2.9271 26.6802 0.893859 28.4691 0.0538471 30.7527C-0.165403 31.3485 0.3082 31.9667 1.05133 32.0584L1.48904 32.1125L4.51421 32.4853L6.13434 32.685L9.93864 33.154L14.6716 33.7379L17.694 34.11L18.1327 34.1641C18.8713 34.2552 19.5454 33.7846 19.545 33.1655C19.545 33.1616 19.545 33.1578 19.545 33.1539H50.154C49.9515 33.7537 49.8429 34.386 49.8429 35.0395C49.8429 38.8933 53.6106 42.0172 58.2588 42.0172C62.906 42.0172 66.6737 38.8933 66.6737 35.0395C66.6737 34.386 66.5651 33.7537 66.3626 33.1539H66.473C67.4172 33.1539 68.2619 32.657 68.563 31.9142C68.8467 31.2152 69 30.4671 69 29.6889C69.0001 26.7354 66.7859 24.2098 63.6587 23.1917ZM17.2369 7.41893C17.0279 7.57399 16.8062 7.65867 16.5918 7.65867C15.7872 7.65867 14.8868 6.46735 14.8868 4.87366C14.8868 3.27997 15.7872 2.08857 16.5918 2.08857C17.3846 2.08857 18.2713 3.24668 18.296 4.80633C18.2969 4.82828 18.2969 4.85097 18.2969 4.87366C18.2969 6.04229 17.8125 6.99461 17.2369 7.41893ZM58.2588 39.643C55.1973 39.643 52.7066 37.5781 52.7066 35.0397C52.7066 34.3688 52.8808 33.7304 53.1938 33.1541H53.2795C53.2641 33.1314 53.2476 33.1079 53.2321 33.0852C54.1206 31.5218 56.0401 30.4371 58.2588 30.4371C59.755 30.4371 61.1142 30.9295 62.1133 31.7306C62.6178 32.1345 63.0302 32.617 63.3221 33.1541C63.636 33.7304 63.8101 34.3688 63.8101 35.0397C63.8101 37.5781 61.3195 39.643 58.2588 39.643Z" fill="#FFAB49"/>
<path d="M29 29.2596C30.7434 29.3827 33.0095 29.4704 35.709 29.4704C41.4839 29.4704 45.0612 29.0523 46 28.7225C45.9952 28.6175 45.9447 28.3928 45.6916 27.9793C45.3602 27.4415 44.8223 26.8034 44.2452 26.1258C40.8612 27.887 35.6119 27.4904 32.7172 27.6282C30.5969 27.7291 29.5332 28.5085 29 29.2596Z" fill="#FFAB49"/>
<path d="M61 16.0156L59.882 14.9033C59.1651 14.1905 58.0587 13.7435 56.8517 13.6785C54.8292 13.5694 51.5925 13.4817 48.9998 13.8111C46.6392 14.1112 45.5221 15.2113 45 16.0884C46.6748 15.7063 48.9686 15.5186 51.9154 15.5186C55.4144 15.5186 58.7507 15.7804 60.4281 15.9363C60.6168 15.9538 60.8079 15.9798 61 16.0156Z" fill="#FFAB49"/>
</svg>
