<svg width="78" height="41" viewBox="0 0 78 41" fill="none" xmlns="http://www.w3.org/2000/svg">
<path d="M60.7933 35.8158H57.9775C56.537 35.8158 56.1706 35.1677 56.0877 34.7155C56.0877 34.607 56.0805 34.4592 56.0733 34.2845C55.9772 31.9201 55.254 23.8061 49.8913 17.3885L49.9165 17.3876L49.2965 16.5089C49.2305 16.1854 49.2533 15.7157 50.2012 16.3753C54.8491 19.7252 61.722 26.1051 62.116 34.8139C62.0897 35.1918 61.8901 35.8158 60.7933 35.8158ZM45.5449 7.60041C45.5353 7.97324 45.3646 9.34873 43.302 9.18796C43.1879 9.17895 43.1134 9.18192 43.0377 9.18499C41.7113 9.04828 40.3731 8.95693 39 8.95693C37.4383 8.95693 35.9126 9.08304 34.4062 9.2614C34.3016 9.25737 34.1815 9.2614 34.0325 9.27698C32.3952 9.43923 32.1092 8.58113 32.0695 8.14058V6.01593C32.0695 4.37412 33.6588 3.04283 35.6231 3.04283H41.9938C43.9567 3.04283 45.5473 4.37412 45.5473 6.01593V7.60052H45.5449V7.60041ZM76.1356 35.8388H74.2903C72.0547 35.8388 72.14 34.0553 72.14 34.0553C72.14 34.0553 72.1255 34.0593 72.1218 34.0593C70.8773 23.589 62.7226 14.8419 51.518 11.0318C51.4867 11.0186 51.4639 11.0052 51.4314 10.9931C49.6149 10.3285 49.5717 8.8394 49.5717 8.8394V4.84339C49.5717 2.26908 47.0777 0.179199 43.9975 0.179199H34.0036C30.9259 0.179199 28.4283 2.26919 28.4283 4.84339V9.43319C28.3779 9.818 28.1058 10.457 26.917 10.8771C26.8413 10.9058 26.7831 10.9324 26.7218 10.9555C15.4226 14.7143 7.17071 23.4755 5.88538 33.9859L5.8703 33.9819C5.8703 33.9819 5.68581 35.8388 3.56496 35.8388H2.18522C1.74668 35.8469 0 35.9754 0 37.4807V38.6864C0.0258486 39.2028 0.294345 40.4327 2.31675 40.4327H75.5962C77.5999 40.4327 77.9483 39.3476 78 38.8051V37.5782C78 36.1292 76.7627 35.8739 76.1356 35.8388Z" fill="#FFAB49"/>
</svg>
