<svg width="64" height="41" viewBox="0 0 64 41" fill="none" xmlns="http://www.w3.org/2000/svg">
<path fill-rule="evenodd" clip-rule="evenodd" d="M0 8.31367C0 4.24297 3.90735 0.942993 8.72727 0.942993H55.2727C60.0928 0.942993 64 4.24297 64 8.31367V13.2275H61.0909H2.90909H0V8.31367ZM0 18.1412V32.8826C0 36.9534 3.90735 40.2533 8.72727 40.2533H55.2727C60.0928 40.2533 64 36.9534 64 32.8826V18.1412H61.0909H2.90909H0ZM45.0909 21.1092C44.2001 20.7804 43.2163 20.5981 42.1818 20.5981C38.1652 20.5981 34.9091 23.3481 34.9091 26.7404C34.9091 30.1326 38.1652 32.8826 42.1818 32.8826C43.2163 32.8826 44.2001 32.7003 45.0909 32.3715C45.9817 32.7003 46.9655 32.8826 48 32.8826C52.0166 32.8826 55.2727 30.1326 55.2727 26.7404C55.2727 23.3481 52.0166 20.5981 48 20.5981C46.9655 20.5981 45.9817 20.7804 45.0909 21.1092ZM11.6364 25.5119H23.2727V20.5981H11.6364V25.5119ZM23.2727 32.8826H11.6364V27.9688H23.2727V32.8826Z" fill="#FFAB49"/>
</svg>
