<svg width="30" height="84" viewBox="0 0 30 84" fill="none" xmlns="http://www.w3.org/2000/svg">
<path d="M22.3125 18.0312L23.9062 19.4375C22.8854 20.3333 22.0625 21.1875 21.4375 22C20.8125 22.8125 20.4062 23.4375 20.2188 23.875C20.0521 24.3125 19.8958 24.8125 19.75 25.375L19.875 25.5625C21.2708 25.5625 22.2917 25.8646 22.9375 26.4688C23.5833 27.0729 23.9062 28.0104 23.9062 29.2812C23.9062 30.2604 23.5521 31.1458 22.8438 31.9375C22.1562 32.7292 21.2917 33.125 20.25 33.125C19.0625 33.125 18.0729 32.7917 17.2812 32.125C16.4896 31.4583 16.0938 30.3854 16.0938 28.9062C16.0938 26.9479 16.6979 24.9271 17.9062 22.8438C19.1354 20.7396 20.6042 19.1354 22.3125 18.0312Z" fill="black"/>
<path d="M12.3125 18.0312L13.9062 19.4375C12.8854 20.3333 12.0625 21.1875 11.4375 22C10.8125 22.8125 10.4062 23.4375 10.2188 23.875C10.0521 24.3125 9.89583 24.8125 9.75 25.375L9.875 25.5625C11.2708 25.5625 12.2917 25.8646 12.9375 26.4688C13.5833 27.0729 13.9062 28.0104 13.9062 29.2812C13.9062 30.2604 13.5521 31.1458 12.8438 31.9375C12.1562 32.7292 11.2917 33.125 10.25 33.125C9.0625 33.125 8.07292 32.7917 7.28125 32.125C6.48958 31.4583 6.09375 30.3854 6.09375 28.9062C6.09375 26.9479 6.69792 24.9271 7.90625 22.8438C9.13542 20.7396 10.6042 19.1354 12.3125 18.0312Z" fill="black"/>
</svg>
