<svg width="53" height="53" viewBox="0 0 53 53" fill="none" xmlns="http://www.w3.org/2000/svg">
<g clip-path="url(#clip0_2469_733)">
<path d="M43.0625 5H9.93751C9.05929 5.00101 8.21733 5.35033 7.59633 5.97132C6.97534 6.59232 6.62602 7.43428 6.62501 8.3125V29.8438C6.62142 33.1469 7.51745 36.3887 9.21691 39.2211C10.9164 42.0536 13.3551 44.3697 16.2713 45.921L26.5 51.375L36.7287 45.921C39.6449 44.3697 42.0836 42.0536 43.7831 39.2211C45.4826 36.3887 46.3786 33.1469 46.375 29.8438V8.3125C46.374 7.43428 46.0247 6.59232 45.4037 5.97132C44.7827 5.35033 43.9407 5.00101 43.0625 5ZM38.0938 31.5H14.9063V28.1875H38.0938V31.5ZM38.0938 21.5625H14.9063V18.25H38.0938V21.5625Z" fill="black"/>
</g>
<defs>
<clipPath id="clip0_2469_733">
<rect width="53" height="53" fill="white"/>
</clipPath>
</defs>
</svg>
