<svg width="49" height="49" viewBox="0 0 49 49" fill="none" xmlns="http://www.w3.org/2000/svg">
<path d="M24.4993 28.5834C30.1373 28.5834 34.7077 23.0989 34.7077 16.3334C34.7077 9.56789 30.1373 4.08337 24.4993 4.08337C18.8614 4.08337 14.291 9.56789 14.291 16.3334C14.291 23.0989 18.8614 28.5834 24.4993 28.5834Z" fill="black"/>
<path d="M44.5081 38.9958C42.6706 35.3208 39.1998 32.2583 34.7081 30.4208C33.4831 30.0125 32.054 30.0125 31.0331 30.625C28.9915 31.85 26.9498 32.4625 24.4998 32.4625C22.0498 32.4625 20.0081 31.85 17.9665 30.625C16.9456 30.2166 15.5165 30.0125 14.2915 30.625C9.79979 32.4625 6.32896 35.525 4.49146 39.2C3.06229 41.8541 5.30812 44.9166 8.37062 44.9166H40.629C43.6915 44.9166 45.9373 41.8541 44.5081 38.9958Z" fill="black"/>
</svg>
