<svg width="152" height="42" viewBox="0 0 152 42" fill="none" xmlns="http://www.w3.org/2000/svg">
<path d="M24.1795 21.2474C24.1284 16.7628 27.8123 14.5463 28.0169 14.4432C25.9191 11.3505 22.6957 10.9381 21.5189 10.9381C18.8072 10.6288 16.1466 12.5876 14.7651 12.5876C13.3325 12.5876 11.2347 10.9896 8.88114 11.0412C5.91355 11.0927 3.15063 12.7938 1.61567 15.5257C-1.50541 20.9896 0.79702 29.0309 3.81577 33.4639C5.29956 35.6288 7.09035 38.0515 9.39279 37.9484C11.6441 37.8453 12.4627 36.5051 15.2256 36.5051C17.9374 36.5051 18.7049 37.9484 21.0585 37.8968C23.4632 37.8453 24.9982 35.7319 26.4308 33.5154C28.1704 31.0412 28.8867 28.567 28.8867 28.4639C28.8356 28.4123 24.2307 26.6597 24.1795 21.2474ZM19.7282 8.05148C20.9561 6.50509 21.7748 4.44324 21.5189 2.32983C19.7793 2.43293 17.5792 3.56695 16.3001 5.06179C15.1745 6.402 14.2023 8.5154 14.4581 10.5773C16.4536 10.6803 18.5002 9.54633 19.7282 8.05148Z" fill="#1E94A4"/>
<path d="M56.7714 35.9897H53.5992L51.8596 30.5258H45.8732L44.2359 35.9897H41.166L47.1012 17.433H50.7851L56.7714 35.9897ZM51.3991 28.2578L49.8641 23.4124C49.7106 22.8969 49.4036 21.7629 48.9431 19.9073H48.892C48.6873 20.6804 48.4315 21.866 48.0222 23.4124L46.4872 28.2578H51.3991ZM72.0186 29.1341C72.0186 31.4021 71.4047 33.2062 70.1767 34.5464C69.0511 35.732 67.7208 36.299 66.0835 36.299C64.3439 36.299 63.0647 35.6805 62.2972 34.3918V41.4536H59.3297V27.0207C59.3297 25.5774 59.2785 24.1341 59.2273 22.6392H61.8368L61.9903 24.7526H62.0414C63.0136 23.1547 64.4974 22.3299 66.544 22.3299C68.1301 22.3299 69.4092 22.9485 70.4837 24.1856C71.507 25.4743 72.0186 27.1237 72.0186 29.1341ZM68.9999 29.2372C68.9999 27.9485 68.6929 26.866 68.1301 25.9897C67.5161 25.1134 66.6463 24.6495 65.5718 24.6495C64.8555 24.6495 64.1904 24.9073 63.5764 25.3712C62.9624 25.8351 62.6042 26.5052 62.3996 27.2784C62.2972 27.5877 62.2973 27.8969 62.2461 28.2062V30.4227C62.2461 31.4021 62.5531 32.2268 63.1159 32.8969C63.7299 33.567 64.4974 33.9279 65.4183 33.9279C66.544 33.9279 67.4138 33.5155 68.0278 32.6392C68.6929 31.8145 68.9999 30.6804 68.9999 29.2372ZM87.317 29.1341C87.317 31.4021 86.7031 33.2062 85.4751 34.5464C84.3495 35.732 83.0192 36.299 81.3819 36.299C79.6423 36.299 78.3631 35.6805 77.5957 34.3918V41.4536H74.6281V27.0207C74.6281 25.5774 74.5769 24.1341 74.5257 22.6392H77.1352L77.2887 24.7526H77.3398C78.312 23.1547 79.7957 22.3299 81.8424 22.3299C83.4285 22.3299 84.7076 22.9485 85.7821 24.1856C86.8054 25.4743 87.317 27.1237 87.317 29.1341ZM84.2983 29.2372C84.2983 27.9485 83.9913 26.866 83.4285 25.9897C82.8145 25.1134 81.9447 24.6495 80.8702 24.6495C80.1539 24.6495 79.4888 24.9073 78.8748 25.3712C78.2608 25.8351 77.9026 26.5052 77.698 27.2784C77.5957 27.6392 77.5445 27.9485 77.5445 28.2062V30.4227C77.5445 31.4021 77.8515 32.2268 78.4143 32.8969C79.0283 33.567 79.7957 33.9279 80.7167 33.9279C81.8424 33.9279 82.7122 33.5155 83.3262 32.6392C83.9913 31.8145 84.2983 30.6804 84.2983 29.2372ZM104.406 30.7835C104.406 32.3815 103.843 33.6701 102.769 34.6495C101.592 35.732 99.9037 36.299 97.7548 36.299C95.7593 36.299 94.1732 35.9382 92.9964 35.165L93.6615 32.6908C94.9407 33.464 96.3733 33.8248 97.9082 33.8248C99.0339 33.8248 99.9037 33.567 100.518 33.0516C101.132 32.5361 101.439 31.866 101.439 31.0413C101.439 30.2681 101.183 29.6495 100.671 29.1341C100.159 28.6186 99.2897 28.1547 98.1129 27.6908C94.8895 26.4536 93.2522 24.7011 93.2522 22.3815C93.2522 20.8351 93.815 19.598 94.9407 18.6186C96.0663 17.6392 97.6012 17.1753 99.4944 17.1753C101.183 17.1753 102.564 17.4846 103.69 18.0516L102.974 20.4743C101.95 19.9073 100.773 19.598 99.4432 19.598C98.4199 19.598 97.6013 19.8557 96.9873 20.3712C96.4756 20.8351 96.271 21.4021 96.271 22.0722C96.271 22.7938 96.578 23.4124 97.1408 23.8763C97.6524 24.3402 98.5222 24.8042 99.8014 25.3196C101.387 25.9897 102.564 26.7114 103.281 27.5877C104.048 28.4124 104.406 29.4949 104.406 30.7835ZM114.23 24.8557H110.955V31.3506C110.955 33 111.518 33.8248 112.695 33.8248C113.207 33.8248 113.667 33.7732 114.025 33.6701L114.128 35.9382C113.565 36.1444 112.797 36.2475 111.825 36.2475C110.648 36.2475 109.727 35.8866 109.113 35.165C108.448 34.4433 108.141 33.2578 108.141 31.5567V24.8557H106.197V22.6392H108.141V20.165L111.058 19.2887V22.6392H114.332V24.8557H114.23ZM128.863 29.1856C128.863 31.2475 128.3 32.9485 127.124 34.2371C125.896 35.5774 124.258 36.299 122.263 36.299C120.319 36.299 118.732 35.6289 117.607 34.3402C116.43 33.0516 115.867 31.4021 115.867 29.3918C115.867 27.3299 116.481 25.6289 117.658 24.2887C118.835 22.9485 120.472 22.2784 122.468 22.2784C124.412 22.2784 125.998 22.9485 127.175 24.2371C128.3 25.5774 128.863 27.1753 128.863 29.1856ZM125.793 29.2887C125.793 28.0516 125.537 27.0207 125.026 26.1444C124.412 25.0619 123.542 24.5464 122.365 24.5464C121.188 24.5464 120.267 25.0619 119.653 26.1444C119.142 27.0207 118.886 28.1031 118.886 29.3402C118.886 30.5774 119.142 31.6083 119.653 32.4846C120.267 33.567 121.188 34.0825 122.314 34.0825C123.44 34.0825 124.309 33.5155 124.975 32.4846C125.537 31.5567 125.793 30.4743 125.793 29.2887ZM138.482 25.2165C138.175 25.165 137.868 25.1134 137.561 25.1134C136.538 25.1134 135.719 25.5258 135.157 26.299C134.645 27.0207 134.44 27.8969 134.44 28.9279V35.9382H131.473V26.8145C131.473 25.4227 131.421 23.9794 131.37 22.5877H133.929L134.031 25.165H134.133C134.44 24.2887 134.952 23.567 135.617 23.0516C136.231 22.5877 136.998 22.3299 137.766 22.3299C138.022 22.3299 138.278 22.3299 138.482 22.3815V25.2165ZM151.683 28.6701C151.683 29.1341 151.632 29.598 151.581 30.0103H142.729C142.78 31.3506 143.189 32.3299 144.008 33.0516C144.776 33.6701 145.697 33.9794 146.925 33.9794C148.255 33.9794 149.432 33.7732 150.506 33.3609L150.967 35.4227C149.687 35.9897 148.204 36.2475 146.515 36.2475C144.469 36.2475 142.831 35.6289 141.655 34.3918C140.478 33.1547 139.915 31.5052 139.915 29.4949C139.915 27.4846 140.478 25.7835 141.552 24.4433C142.678 23 144.264 22.2784 146.208 22.2784C148.101 22.2784 149.585 23 150.557 24.4433C151.325 25.5774 151.683 27.0207 151.683 28.6701ZM148.869 27.8969C148.869 27.0207 148.715 26.2475 148.306 25.6289C147.794 24.8042 147.027 24.3918 145.952 24.3918C144.98 24.3918 144.213 24.8042 143.599 25.6289C143.087 26.2475 142.831 27.0207 142.729 27.9485L148.869 27.8969Z" fill="#1E94A4"/>
<path d="M49.1986 1.76302C49.8126 2.0723 50.3242 2.53622 50.6312 3.15478C50.9894 3.77333 51.1429 4.44344 51.1429 5.21663C51.1429 5.98983 50.9894 6.71148 50.6312 7.27849C50.273 7.8455 49.8126 8.30941 49.1986 8.67024C48.5846 8.97952 47.8683 9.13416 47.0496 9.13416H44.3379V1.24756H47.0496C47.8171 1.24756 48.5846 1.4022 49.1986 1.76302ZM48.8404 7.12385C49.3009 6.65993 49.5056 6.04137 49.5056 5.21663C49.5056 4.39189 49.3009 3.77333 48.8404 3.30941C48.3799 2.8455 47.7659 2.63931 46.9473 2.63931H45.8217V7.8455H46.9473C47.7659 7.79395 48.4311 7.58776 48.8404 7.12385Z" fill="#1E94A4"/>
<path d="M52.4218 1.866C52.2172 1.71137 52.166 1.45363 52.166 1.1959C52.166 0.938169 52.2683 0.731984 52.4218 0.525798C52.6265 0.371159 52.8312 0.268066 53.087 0.268066C53.3428 0.268066 53.5987 0.371159 53.7522 0.525798C53.9568 0.680438 54.008 0.938169 54.008 1.1959C54.008 1.45363 53.9057 1.65982 53.7522 1.866C53.5475 2.02064 53.3428 2.12374 53.087 2.12374C52.8312 2.12374 52.5753 2.07219 52.4218 1.866ZM53.8545 2.89693V9.13405H52.2684V2.89693H53.8545Z" fill="#1E94A4"/>
<path d="M56.4127 8.97945C56.0034 8.77326 55.6964 8.56708 55.4406 8.20625C55.1847 7.89697 55.0824 7.53615 55.0312 7.17532H56.6174C56.6685 7.43305 56.7709 7.63924 56.9755 7.79388C57.1802 7.94852 57.436 8.05161 57.743 8.05161C58.05 8.05161 58.2546 8.00007 58.4593 7.89697C58.6128 7.79388 58.7151 7.63924 58.7151 7.43305C58.7151 7.22687 58.6128 7.07223 58.4081 6.96914C58.2035 6.86604 57.8965 6.76295 57.436 6.65986C56.9755 6.55677 56.6174 6.45367 56.3104 6.29903C56.0034 6.19594 55.7476 5.98976 55.5429 5.73202C55.3382 5.47429 55.2359 5.16501 55.2359 4.75264C55.2359 4.39182 55.3382 4.08254 55.5429 3.82481C55.7476 3.51553 56.0034 3.30934 56.4127 3.1547C56.7708 3.00007 57.2313 2.89697 57.6918 2.89697C58.4081 2.89697 59.0221 3.10316 59.4826 3.46398C59.9431 3.82481 60.1478 4.34027 60.1989 4.95883H58.7151C58.7151 4.7011 58.6128 4.49491 58.4081 4.39182C58.2035 4.23718 57.9988 4.18563 57.6918 4.18563C57.3848 4.18563 57.1802 4.23718 57.0267 4.34027C56.8732 4.44336 56.822 4.598 56.822 4.80419C56.822 5.01037 56.9244 5.16501 57.129 5.26811C57.3337 5.3712 57.6407 5.47429 58.1012 5.57738C58.5617 5.68048 58.9198 5.78357 59.2268 5.93821C59.5338 6.0413 59.7896 6.24749 59.9943 6.50522C60.1989 6.76295 60.3013 7.07223 60.3013 7.4846C60.3013 7.84543 60.1989 8.1547 59.9943 8.46398C59.7896 8.77326 59.5338 8.97945 59.1245 9.13409C58.7663 9.28872 58.3058 9.39182 57.8453 9.39182C57.2825 9.23718 56.822 9.13409 56.4127 8.97945Z" fill="#1E94A4"/>
<path d="M63.9344 3.05147C64.2926 2.84528 64.7019 2.74219 65.1624 2.74219C65.6741 2.74219 66.1857 2.89683 66.595 3.15456C67.0044 3.41229 67.3625 3.77312 67.6183 4.28858C67.8742 4.7525 67.9765 5.31951 67.9765 5.98961C67.9765 6.60817 67.8742 7.17518 67.6183 7.69064C67.3625 8.20611 67.0044 8.56693 66.595 8.82466C66.1857 9.08239 65.6741 9.23703 65.1624 9.23703C64.7019 9.23703 64.2926 9.13394 63.9344 8.9793C63.5763 8.77312 63.3205 8.56693 63.0646 8.25765V12.1236H61.4785V2.89683H63.0646V3.82466C63.2693 3.51538 63.5763 3.25765 63.9344 3.05147ZM66.1345 5.01023C65.981 4.7525 65.7764 4.54631 65.5206 4.39167C65.2648 4.23703 65.0089 4.18549 64.7019 4.18549C64.3949 4.18549 64.1391 4.23703 63.8833 4.39167C63.6275 4.54631 63.4228 4.7525 63.2693 5.01023C63.1158 5.26796 63.0646 5.62879 63.0646 5.98961C63.0646 6.35044 63.1158 6.71126 63.2693 6.96899C63.4228 7.22672 63.6275 7.48446 63.8833 7.58755C64.1391 7.74219 64.3949 7.79373 64.7019 7.79373C65.0089 7.79373 65.2648 7.74219 65.5206 7.58755C65.7764 7.43291 65.981 7.22672 66.1345 6.96899C66.288 6.71126 66.3392 6.35044 66.3392 5.98961C66.3904 5.62879 66.288 5.26796 66.1345 5.01023Z" fill="#1E94A4"/>
<path d="M70.2273 8.82466C69.7669 8.56693 69.3576 8.15456 69.1017 7.69064C68.8459 7.22672 68.6924 6.65971 68.6924 5.98961C68.6924 5.37105 68.8459 4.80404 69.1017 4.28858C69.3576 3.82466 69.7669 3.41229 70.2273 3.15456C70.6878 2.89683 71.2506 2.74219 71.8646 2.74219C72.4786 2.74219 72.9903 2.89683 73.5019 3.15456C73.9624 3.41229 74.3717 3.82466 74.6276 4.28858C74.8834 4.7525 75.0369 5.31951 75.0369 5.98961C75.0369 6.60817 74.8834 7.17518 74.6276 7.69064C74.3206 8.15456 73.9624 8.56693 73.4508 8.82466C72.9391 9.08239 72.4275 9.23703 71.8135 9.23703C71.2507 9.23703 70.739 9.08239 70.2273 8.82466ZM72.6833 7.63909C72.9391 7.48446 73.1438 7.27827 73.2973 7.02054C73.4507 6.76281 73.5019 6.40198 73.5019 5.98961C73.5019 5.37105 73.3484 4.95868 73.0414 4.59786C72.7344 4.28858 72.3763 4.13394 71.9158 4.13394C71.4553 4.13394 71.0972 4.28858 70.7902 4.59786C70.4832 4.90714 70.3297 5.37105 70.3297 5.98961C70.3297 6.60817 70.4832 7.02054 70.7902 7.38136C71.0972 7.69064 71.4553 7.84528 71.9158 7.84528C72.1205 7.84528 72.4275 7.79373 72.6833 7.63909Z" fill="#1E94A4"/>
<path d="M81.4839 3.51547C81.9444 3.97939 82.1491 4.6495 82.1491 5.47424V9.13403H80.5629V5.68042C80.5629 5.16496 80.4606 4.80413 80.2047 4.5464C79.9489 4.28867 79.6419 4.13403 79.1814 4.13403C78.7721 4.13403 78.414 4.28867 78.1581 4.5464C77.9023 4.80413 77.8 5.21651 77.8 5.68042V9.13403H76.2139V2.89692H77.8V3.67011C78.0047 3.41238 78.2605 3.2062 78.6186 3.05156C78.9256 2.89692 79.2838 2.84537 79.6931 2.84537C80.4094 2.79383 81.0234 3.05156 81.4839 3.51547Z" fill="#1E94A4"/>
<path d="M83.7353 1.866C83.5307 1.71137 83.4795 1.45363 83.4795 1.1959C83.4795 0.938169 83.5818 0.731984 83.7353 0.525798C83.94 0.371159 84.1446 0.268066 84.4005 0.268066C84.6563 0.268066 84.9121 0.371159 85.0656 0.525798C85.2703 0.680438 85.3214 0.938169 85.3214 1.1959C85.3214 1.45363 85.2191 1.65982 85.0656 1.866C84.8609 2.02064 84.6563 2.12374 84.4005 2.12374C84.1446 2.12374 83.94 2.07219 83.7353 1.866ZM85.2191 2.89693V9.13405H83.633V2.89693H85.2191Z" fill="#1E94A4"/>
<path d="M89.1586 3.05149C89.5168 2.8453 89.9261 2.79376 90.3866 2.79376C90.8983 2.79376 91.4099 2.9484 91.8192 3.20613C92.2286 3.46386 92.5867 3.82468 92.8425 4.34015C93.0984 4.80407 93.2007 5.37108 93.2007 6.04118C93.2007 6.65974 93.0984 7.22675 92.8425 7.74221C92.5867 8.25767 92.2286 8.6185 91.8192 8.87623C91.4099 9.13396 90.8983 9.2886 90.3866 9.2886C89.9261 9.2886 89.5168 9.18551 89.1586 9.03087C88.8005 8.82468 88.5447 8.6185 88.34 8.30922V9.18551H86.7539V0.783447H88.34V3.82468C88.5447 3.51541 88.8005 3.25767 89.1586 3.05149ZM91.3588 5.01025C91.2053 4.75252 91.0006 4.54633 90.7448 4.39169C90.489 4.23706 90.2331 4.18551 89.9261 4.18551C89.6191 4.18551 89.3633 4.23706 89.1075 4.39169C88.8517 4.54633 88.647 4.75252 88.4935 5.01025C88.34 5.26798 88.2889 5.62881 88.2889 5.98963C88.2889 6.35046 88.34 6.71128 88.4935 6.96901C88.647 7.22675 88.8517 7.48448 89.1075 7.58757C89.3633 7.74221 89.6191 7.79376 89.9261 7.79376C90.2331 7.79376 90.489 7.74221 90.7448 7.58757C91.0006 7.43293 91.2053 7.22675 91.3588 6.96901C91.5123 6.71128 91.5634 6.35046 91.5634 5.98963C91.6146 5.62881 91.5123 5.26798 91.3588 5.01025Z" fill="#1E94A4"/>
<path d="M95.9123 0.783447V9.13396H94.3262V0.783447H95.9123Z" fill="#1E94A4"/>
<path d="M103.178 6.50507H98.6246C98.6757 6.96899 98.8292 7.32982 99.0851 7.58755C99.3409 7.84528 99.699 7.94837 100.108 7.94837C100.671 7.94837 101.081 7.69064 101.336 7.17518H103.025C102.871 7.79373 102.513 8.25765 102.001 8.67002C101.49 9.08239 100.876 9.23703 100.108 9.23703C99.4944 9.23703 98.9827 9.08239 98.5223 8.82466C98.0618 8.56693 97.7036 8.15456 97.3966 7.69064C97.1408 7.22672 96.9873 6.65971 96.9873 5.98961C96.9873 5.31951 97.1408 4.7525 97.3966 4.28858C97.6524 3.82466 98.0106 3.41229 98.4711 3.15456C98.9316 2.89683 99.4944 2.74219 100.108 2.74219C100.722 2.74219 101.234 2.84528 101.694 3.10301C102.155 3.36074 102.513 3.72157 102.769 4.18549C103.025 4.6494 103.178 5.21641 103.178 5.78342C103.229 6.0927 103.178 6.29889 103.178 6.50507ZM101.592 5.4226C101.592 5.01023 101.439 4.70095 101.132 4.44322C100.825 4.18549 100.518 4.08239 100.108 4.08239C99.699 4.08239 99.392 4.18549 99.1362 4.44322C98.8804 4.70095 98.7269 5.01023 98.6246 5.4226H101.592Z" fill="#1E94A4"/>
<path d="M108.039 8.97945C107.629 8.77326 107.322 8.56708 107.067 8.20625C106.811 7.89697 106.708 7.53615 106.657 7.17532H108.243C108.295 7.43305 108.397 7.63924 108.601 7.79388C108.806 7.94852 109.062 8.05161 109.369 8.05161C109.676 8.05161 109.881 8.00007 110.085 7.89697C110.239 7.79388 110.341 7.63924 110.341 7.43305C110.341 7.22687 110.239 7.07223 110.034 6.96914C109.829 6.86604 109.522 6.76295 109.062 6.65986C108.602 6.55677 108.243 6.45367 107.936 6.29903C107.629 6.19594 107.374 5.98976 107.169 5.73202C106.964 5.47429 106.862 5.16501 106.862 4.75264C106.862 4.39182 106.964 4.08254 107.169 3.82481C107.374 3.51553 107.629 3.30934 108.039 3.1547C108.397 3.00007 108.857 2.89697 109.318 2.89697C110.034 2.89697 110.648 3.10316 111.109 3.46398C111.569 3.82481 111.774 4.34027 111.825 4.95883H110.341C110.341 4.7011 110.239 4.49491 110.034 4.39182C109.829 4.23718 109.625 4.18563 109.318 4.18563C109.011 4.18563 108.806 4.23718 108.653 4.34027C108.499 4.44336 108.448 4.598 108.448 4.80419C108.448 5.01037 108.55 5.16501 108.755 5.26811C108.96 5.3712 109.267 5.47429 109.727 5.57738C110.188 5.68048 110.546 5.78357 110.853 5.93821C111.16 6.0413 111.416 6.24749 111.62 6.50522C111.825 6.76295 111.927 7.07223 111.927 7.4846C111.927 7.84543 111.825 8.1547 111.62 8.46398C111.416 8.77326 111.16 8.97945 110.75 9.13409C110.392 9.28872 109.932 9.39182 109.471 9.39182C108.908 9.23718 108.448 9.13409 108.039 8.97945Z" fill="#1E94A4"/>
<path d="M118.988 2.89701V9.13412H117.401V8.36092C117.197 8.61865 116.941 8.82484 116.634 8.97948C116.327 9.13412 115.969 9.18566 115.559 9.18566C115.099 9.18566 114.638 9.08257 114.28 8.87639C113.922 8.6702 113.615 8.36092 113.41 7.94855C113.206 7.53618 113.104 7.07226 113.104 6.50525V2.84546H114.69V6.29907C114.69 6.81453 114.792 7.17536 115.048 7.43309C115.304 7.69082 115.611 7.84546 116.071 7.84546C116.48 7.84546 116.839 7.69082 117.094 7.43309C117.35 7.17536 117.453 6.76298 117.453 6.29907V2.84546H118.988V2.89701Z" fill="#1E94A4"/>
<path d="M122.876 3.10319C123.183 2.89701 123.592 2.84546 124.002 2.84546V4.49494H123.592C123.081 4.49494 122.723 4.59804 122.467 4.85577C122.211 5.1135 122.109 5.47432 122.109 6.09288V9.18566H120.522V2.89701H122.109V3.87639C122.262 3.51556 122.569 3.25783 122.876 3.10319Z" fill="#1E94A4"/>
</svg>
