<svg width="149" height="40" viewBox="0 0 149 40" fill="none" xmlns="http://www.w3.org/2000/svg">
<path d="M24.2612 20.2203C24.2115 15.8989 27.7923 13.763 27.9912 13.6636C25.9521 10.6833 22.8189 10.2859 21.6751 10.2859C19.0392 9.98791 16.4531 11.8754 15.1103 11.8754C13.7178 11.8754 11.6787 10.3356 9.39102 10.3853C6.5065 10.435 3.8209 12.0741 2.32891 14.7067C-0.704808 19.972 1.53318 27.7208 4.46743 31.9926C5.90969 34.0788 7.65036 36.4134 9.88835 36.3141C12.0766 36.2147 12.8723 34.9232 15.5579 34.9232C18.1938 34.9232 18.9398 36.3141 21.2275 36.2644C23.5649 36.2147 25.0569 34.1782 26.4495 32.0423C28.1404 29.658 28.8367 27.2738 28.8367 27.1744C28.7869 27.1247 24.3109 25.4359 24.2612 20.2203ZM19.9344 7.50431C21.128 6.01415 21.9238 4.02727 21.6751 1.99072C19.9842 2.09007 17.8456 3.18285 16.6023 4.62334C15.5082 5.91481 14.5633 7.95136 14.8119 9.93824C16.7515 10.0376 18.7408 8.9448 19.9344 7.50431Z" fill="white"/>
<path d="M55.9401 34.4267H52.8566L51.1657 29.1614H45.3469L43.7555 34.4267H40.7715L46.5405 16.5447H50.1213L55.9401 34.4267ZM50.7181 26.9759L49.2261 22.3067C49.0769 21.81 48.7785 20.7172 48.3309 18.929H48.2812C48.0823 19.6741 47.8336 20.8165 47.4357 22.3067L45.9437 26.9759H50.7181ZM70.7605 27.8203C70.7605 30.0059 70.1638 31.7444 68.9702 33.0358C67.876 34.1783 66.583 34.7247 64.9915 34.7247C63.3006 34.7247 62.0572 34.1286 61.3113 32.8868V39.6919H58.4267V25.7837C58.4267 24.3929 58.377 23.0021 58.3273 21.5616H60.8637L61.0129 23.5982H61.0626C62.0075 22.0583 63.4498 21.2636 65.4391 21.2636C66.9809 21.2636 68.2242 21.8596 69.2686 23.0518C70.2632 24.2936 70.7605 25.8831 70.7605 27.8203ZM67.8263 27.9196C67.8263 26.6778 67.5279 25.6347 66.9808 24.7903C66.384 23.9459 65.5386 23.4988 64.4942 23.4988C63.7979 23.4988 63.1514 23.7472 62.5546 24.1942C61.9578 24.6413 61.6097 25.287 61.4107 26.0321C61.3113 26.3301 61.3113 26.6282 61.2615 26.9262V29.0621C61.2615 30.0059 61.5599 30.8006 62.107 31.4463C62.7038 32.0921 63.4498 32.4398 64.345 32.4398C65.4391 32.4398 66.2846 32.0424 66.8814 31.198C67.5279 30.4032 67.8263 29.3104 67.8263 27.9196ZM85.6308 27.8203C85.6308 30.0059 85.034 31.7444 83.8404 33.0358C82.7463 34.1783 81.4532 34.7247 79.8617 34.7247C78.1708 34.7247 76.9275 34.1286 76.1815 32.8868V39.6919H73.297V25.7837C73.297 24.3929 73.2472 23.0021 73.1975 21.5616H75.7339L75.8831 23.5982H75.9328C76.8777 22.0583 78.32 21.2636 80.3093 21.2636C81.851 21.2636 83.0944 21.8596 84.1388 23.0518C85.1334 24.2936 85.6308 25.8831 85.6308 27.8203ZM82.6965 27.9196C82.6965 26.6778 82.3981 25.6347 81.8511 24.7903C81.2543 23.9459 80.4088 23.4988 79.3644 23.4988C78.6681 23.4988 78.0216 23.7472 77.4248 24.1942C76.828 24.6413 76.4799 25.287 76.2809 26.0321C76.1815 26.3798 76.1317 26.6778 76.1317 26.9262V29.0621C76.1317 30.0059 76.4301 30.8006 76.9772 31.4463C77.574 32.0921 78.32 32.4398 79.2152 32.4398C80.3093 32.4398 81.1548 32.0424 81.7516 31.198C82.3981 30.4032 82.6965 29.3104 82.6965 27.9196ZM102.242 29.4098C102.242 30.9496 101.695 32.1914 100.65 33.1352C99.5063 34.1783 97.8651 34.7247 95.7763 34.7247C93.8367 34.7247 92.295 34.377 91.1511 33.6319L91.7977 31.2477C93.041 31.9927 94.4335 32.3404 95.9255 32.3404C97.0196 32.3404 97.8651 32.0921 98.4619 31.5954C99.0587 31.0986 99.3571 30.4529 99.3571 29.6582C99.3571 28.9131 99.1084 28.317 98.6111 27.8203C98.1138 27.3236 97.2683 26.8765 96.1244 26.4295C92.9912 25.2373 91.3998 23.5485 91.3998 21.3133C91.3998 19.8231 91.9469 18.631 93.041 17.6872C94.1351 16.7434 95.6271 16.2964 97.4672 16.2964C99.1084 16.2964 100.451 16.5944 101.545 17.1408L100.849 19.4754C99.8544 18.929 98.7106 18.631 97.4175 18.631C96.4228 18.631 95.6271 18.8793 95.0303 19.376C94.533 19.8231 94.3341 20.3695 94.3341 21.0152C94.3341 21.7106 94.6325 22.3067 95.1795 22.7537C95.6769 23.2008 96.5223 23.6478 97.7656 24.1446C99.3074 24.7903 100.451 25.4857 101.147 26.3301C101.893 27.1249 102.242 28.168 102.242 29.4098ZM111.79 23.6975H108.607V29.9562C108.607 31.5457 109.155 32.3404 110.298 32.3404C110.796 32.3404 111.243 32.2908 111.591 32.1914L111.691 34.377C111.144 34.5757 110.398 34.675 109.453 34.675C108.309 34.675 107.414 34.3273 106.817 33.6319C106.171 32.9365 105.872 31.794 105.872 30.1549V23.6975H103.982V21.5616H105.872V19.1774L108.707 18.3329V21.5616H111.89V23.6975H111.79ZM126.014 27.87C126.014 29.8568 125.467 31.496 124.323 32.7378C123.13 34.0293 121.538 34.7247 119.598 34.7247C117.709 34.7247 116.167 34.079 115.073 32.8372C113.929 31.5954 113.382 30.0059 113.382 28.0686C113.382 26.0818 113.979 24.4426 115.122 23.1511C116.266 21.8596 117.858 21.2139 119.797 21.2139C121.687 21.2139 123.229 21.8596 124.373 23.1014C125.467 24.3929 126.014 25.9327 126.014 27.87ZM123.03 27.9693C123.03 26.7772 122.781 25.7837 122.284 24.9393C121.687 23.8962 120.842 23.3995 119.698 23.3995C118.554 23.3995 117.659 23.8962 117.062 24.9393C116.565 25.7837 116.316 26.8268 116.316 28.019C116.316 29.2111 116.565 30.2045 117.062 31.049C117.659 32.0921 118.554 32.5888 119.648 32.5888C120.742 32.5888 121.588 32.0424 122.234 31.049C122.781 30.1549 123.03 29.1118 123.03 27.9693ZM135.364 24.0452C135.065 23.9955 134.767 23.9459 134.469 23.9459C133.474 23.9459 132.678 24.3432 132.131 25.0883C131.634 25.7837 131.435 26.6282 131.435 27.6216V34.377H128.55V25.585C128.55 24.2439 128.501 22.8531 128.451 21.5119H130.938L131.037 23.9955H131.137C131.435 23.1511 131.932 22.4557 132.579 21.959C133.176 21.5119 133.922 21.2636 134.668 21.2636C134.916 21.2636 135.165 21.2636 135.364 21.3133V24.0452ZM148.195 27.3732C148.195 27.8203 148.145 28.2673 148.096 28.6647H139.492C139.541 29.9562 139.939 30.8999 140.735 31.5954C141.481 32.1914 142.376 32.4895 143.57 32.4895C144.863 32.4895 146.007 32.2908 147.051 31.8934L147.499 33.8803C146.255 34.4267 144.813 34.675 143.172 34.675C141.183 34.675 139.591 34.079 138.447 32.8868C137.303 31.6947 136.756 30.1052 136.756 28.168C136.756 26.2308 137.303 24.5916 138.348 23.3001C139.442 21.9093 140.984 21.2139 142.874 21.2139C144.714 21.2139 146.156 21.9093 147.101 23.3001C147.847 24.3929 148.195 25.7837 148.195 27.3732ZM145.46 26.6282C145.46 25.7837 145.31 25.0387 144.913 24.4426C144.415 23.6478 143.669 23.2505 142.625 23.2505C141.68 23.2505 140.934 23.6478 140.337 24.4426C139.84 25.0387 139.591 25.7837 139.492 26.6778L145.46 26.6282Z" fill="white"/>
<path d="M48.5801 1.44447C49.1769 1.74251 49.6742 2.18955 49.9726 2.78562C50.3208 3.38168 50.47 4.02742 50.47 4.7725C50.47 5.51758 50.3208 6.21298 49.9726 6.75938C49.6245 7.30577 49.1769 7.75282 48.5801 8.10052C47.9833 8.39855 47.287 8.54757 46.4913 8.54757H43.8555V0.947754H46.4913C47.2373 0.947754 47.9833 1.09677 48.5801 1.44447ZM48.232 6.61036C48.6796 6.16331 48.8785 5.56725 48.8785 4.7725C48.8785 3.97775 48.6796 3.38168 48.232 2.93463C47.7844 2.48759 47.1876 2.2889 46.3918 2.2889H45.2977V7.30577H46.3918C47.1876 7.25609 47.8341 7.05741 48.232 6.61036Z" fill="white"/>
<path d="M51.7135 1.54374C51.5146 1.39472 51.4648 1.14636 51.4648 0.898002C51.4648 0.649642 51.5643 0.450954 51.7135 0.252266C51.9124 0.10325 52.1114 0.00390625 52.36 0.00390625C52.6087 0.00390625 52.8574 0.10325 53.0066 0.252266C53.2055 0.401282 53.2553 0.649642 53.2553 0.898002C53.2553 1.14636 53.1558 1.34505 53.0066 1.54374C52.8077 1.69275 52.6087 1.7921 52.36 1.7921C52.1114 1.7921 51.8627 1.74243 51.7135 1.54374ZM53.106 2.53718V8.54749H51.5643V2.53718H53.106Z" fill="white"/>
<path d="M55.5928 8.3984C55.1949 8.19971 54.8965 8.00103 54.6479 7.65332C54.3992 7.35529 54.2997 7.00759 54.25 6.65988H55.7917C55.8414 6.90824 55.9409 7.10693 56.1399 7.25595C56.3388 7.40496 56.5875 7.50431 56.8858 7.50431C57.1842 7.50431 57.3832 7.45463 57.5821 7.35529C57.7313 7.25595 57.8308 7.10693 57.8308 6.90824C57.8308 6.70956 57.7313 6.56054 57.5324 6.4612C57.3334 6.36185 57.035 6.26251 56.5874 6.16316C56.1398 6.06382 55.7917 5.96448 55.4933 5.81546C55.1949 5.71612 54.9463 5.51743 54.7473 5.26907C54.5484 5.02071 54.4489 4.72268 54.4489 4.3253C54.4489 3.9776 54.5484 3.67956 54.7473 3.4312C54.9463 3.13317 55.1949 2.93449 55.5928 2.78547C55.9409 2.63645 56.3885 2.53711 56.8361 2.53711C57.5324 2.53711 58.1292 2.7358 58.5768 3.0835C59.0244 3.4312 59.2233 3.92792 59.273 4.52399H57.8308C57.8308 4.27563 57.7313 4.07694 57.5324 3.9776C57.3334 3.82858 57.1345 3.77891 56.8361 3.77891C56.5377 3.77891 56.3388 3.82858 56.1896 3.92792C56.0404 4.02727 55.9907 4.17628 55.9907 4.37497C55.9907 4.57366 56.0901 4.72268 56.289 4.82202C56.488 4.92136 56.7864 5.02071 57.234 5.12005C57.6816 5.2194 58.0297 5.31874 58.3281 5.46776C58.6265 5.5671 58.8752 5.76579 59.0741 6.01415C59.273 6.26251 59.3725 6.56054 59.3725 6.95792C59.3725 7.30562 59.273 7.60365 59.0741 7.90168C58.8752 8.19971 58.6265 8.3984 58.2286 8.54742C57.8805 8.69643 57.4329 8.79578 56.9853 8.79578C56.4383 8.64676 55.9906 8.54742 55.5928 8.3984Z" fill="white"/>
<path d="M62.9028 2.68622C63.2509 2.48753 63.6488 2.38818 64.0964 2.38818C64.5937 2.38818 65.0911 2.5372 65.4889 2.78556C65.8868 3.03392 66.2349 3.38162 66.4836 3.87834C66.7323 4.32539 66.8317 4.87178 66.8317 5.51752C66.8317 6.11358 66.7323 6.65997 66.4836 7.15669C66.2349 7.65341 65.8868 8.00112 65.4889 8.24948C65.0911 8.49784 64.5937 8.64685 64.0964 8.64685C63.6488 8.64685 63.2509 8.54751 62.9028 8.39849C62.5547 8.19981 62.306 8.00112 62.0573 7.70309V11.4285H60.5156V2.5372H62.0573V3.4313C62.2563 3.13326 62.5547 2.8849 62.9028 2.68622ZM65.0413 4.57375C64.8921 4.32539 64.6932 4.1267 64.4446 3.97769C64.1959 3.82867 63.9472 3.779 63.6488 3.779C63.3504 3.779 63.1018 3.82867 62.8531 3.97769C62.6044 4.1267 62.4055 4.32539 62.2563 4.57375C62.1071 4.82211 62.0573 5.16981 62.0573 5.51752C62.0573 5.86522 62.1071 6.21293 62.2563 6.46129C62.4055 6.70965 62.6044 6.95801 62.8531 7.05735C63.1018 7.20637 63.3504 7.25604 63.6488 7.25604C63.9472 7.25604 64.1959 7.20637 64.4446 7.05735C64.6932 6.90833 64.8921 6.70965 65.0413 6.46129C65.1905 6.21293 65.2403 5.86522 65.2403 5.51752C65.29 5.16981 65.1905 4.82211 65.0413 4.57375Z" fill="white"/>
<path d="M69.0213 8.24948C68.5737 8.00112 68.1759 7.60374 67.9272 7.15669C67.6785 6.70965 67.5293 6.16325 67.5293 5.51752C67.5293 4.92145 67.6785 4.37506 67.9272 3.87834C68.1759 3.4313 68.5737 3.03392 69.0213 2.78556C69.4689 2.5372 70.016 2.38818 70.6128 2.38818C71.2096 2.38818 71.7069 2.5372 72.2042 2.78556C72.6518 3.03392 73.0497 3.4313 73.2984 3.87834C73.547 4.32539 73.6962 4.87178 73.6962 5.51752C73.6962 6.11358 73.547 6.65997 73.2984 7.15669C73 7.60374 72.6518 8.00112 72.1545 8.24948C71.6572 8.49784 71.1598 8.64685 70.563 8.64685C70.016 8.64685 69.5186 8.49784 69.0213 8.24948ZM71.4085 7.10702C71.6572 6.95801 71.8561 6.75932 72.0053 6.51096C72.1545 6.2626 72.2042 5.91489 72.2042 5.51752C72.2042 4.92145 72.055 4.52408 71.7566 4.17638C71.4582 3.87834 71.1101 3.72933 70.6625 3.72933C70.2149 3.72933 69.8668 3.87834 69.5684 4.17638C69.27 4.47441 69.1208 4.92145 69.1208 5.51752C69.1208 6.11358 69.27 6.51096 69.5684 6.85866C69.8668 7.15669 70.2149 7.30571 70.6625 7.30571C70.8614 7.30571 71.1598 7.25604 71.4085 7.10702Z" fill="white"/>
<path d="M79.9623 3.13345C80.4099 3.5805 80.6089 4.22623 80.6089 5.02098V8.54769H79.0672V5.21967C79.0672 4.72295 78.9677 4.37525 78.719 4.12689C78.4704 3.87853 78.172 3.72951 77.7244 3.72951C77.3265 3.72951 76.9784 3.87853 76.7297 4.12689C76.481 4.37525 76.3816 4.77262 76.3816 5.21967V8.54769H74.8398V2.53739H76.3816V3.28246C76.5805 3.0341 76.8292 2.83542 77.1773 2.6864C77.4757 2.53738 77.8238 2.48771 78.2217 2.48771C78.918 2.43804 79.5148 2.6864 79.9623 3.13345Z" fill="white"/>
<path d="M82.1491 1.54374C81.9501 1.39472 81.9004 1.14636 81.9004 0.898002C81.9004 0.649642 81.9999 0.450954 82.1491 0.252266C82.348 0.10325 82.5469 0.00390625 82.7956 0.00390625C83.0442 0.00390625 83.2929 0.10325 83.4421 0.252266C83.641 0.401282 83.6908 0.649642 83.6908 0.898002C83.6908 1.14636 83.5913 1.34505 83.4421 1.54374C83.2432 1.69275 83.0442 1.7921 82.7956 1.7921C82.5469 1.7921 82.348 1.74243 82.1491 1.54374ZM83.5913 2.53718V8.54749H82.0496V2.53718H83.5913Z" fill="white"/>
<path d="M87.4214 2.68606C87.7695 2.48737 88.1674 2.4377 88.615 2.4377C89.1124 2.4377 89.6097 2.58671 90.0075 2.83507C90.4054 3.08343 90.7535 3.43113 91.0022 3.92785C91.2509 4.3749 91.3503 4.92129 91.3503 5.56703C91.3503 6.16309 91.2509 6.70949 91.0022 7.20621C90.7535 7.70293 90.4054 8.05063 90.0075 8.29899C89.6097 8.54735 89.1124 8.69636 88.615 8.69636C88.1674 8.69636 87.7695 8.59702 87.4214 8.448C87.0733 8.24932 86.8246 8.05063 86.6257 7.7526V8.59702H85.084V0.500488H86.6257V3.43113C86.8246 3.1331 87.0733 2.88474 87.4214 2.68606ZM89.56 4.57359C89.4108 4.32523 89.2118 4.12654 88.9632 3.97753C88.7145 3.82851 88.4658 3.77884 88.1674 3.77884C87.869 3.77884 87.6204 3.82851 87.3717 3.97753C87.123 4.12654 86.9241 4.32523 86.7749 4.57359C86.6257 4.82195 86.576 5.16965 86.576 5.51736C86.576 5.86506 86.6257 6.21277 86.7749 6.46113C86.9241 6.70949 87.123 6.95784 87.3717 7.05719C87.6204 7.2062 87.869 7.25588 88.1674 7.25588C88.4658 7.25588 88.7145 7.2062 88.9632 7.05719C89.2118 6.90817 89.4108 6.70949 89.56 6.46113C89.7092 6.21277 89.7589 5.86506 89.7589 5.51736C89.8086 5.16965 89.7092 4.82195 89.56 4.57359Z" fill="white"/>
<path d="M93.987 0.500488V8.54735H92.4453V0.500488H93.987Z" fill="white"/>
<path d="M101.049 6.01424H96.6227C96.6724 6.46129 96.8216 6.80899 97.0703 7.05735C97.319 7.30571 97.6671 7.40505 98.065 7.40505C98.612 7.40505 99.0099 7.15669 99.2586 6.65997H100.9C100.751 7.25604 100.402 7.70309 99.9051 8.10046C99.4078 8.49784 98.811 8.64685 98.065 8.64685C97.4682 8.64685 96.9708 8.49784 96.5232 8.24948C96.0756 8.00112 95.7275 7.60374 95.4291 7.15669C95.1804 6.70965 95.0312 6.16325 95.0312 5.51752C95.0312 4.87178 95.1804 4.32539 95.4291 3.87834C95.6778 3.4313 96.0259 3.03392 96.4735 2.78556C96.9211 2.5372 97.4682 2.38818 98.065 2.38818C98.6618 2.38818 99.1591 2.48753 99.6067 2.73589C100.054 2.98425 100.402 3.33195 100.651 3.779C100.9 4.22605 101.049 4.77244 101.049 5.31883C101.099 5.61686 101.049 5.81555 101.049 6.01424ZM99.5072 4.97113C99.5072 4.57375 99.358 4.27572 99.0596 4.02736C98.7612 3.779 98.4628 3.67966 98.065 3.67966C97.6671 3.67966 97.3687 3.779 97.12 4.02736C96.8714 4.27572 96.7222 4.57375 96.6227 4.97113H99.5072Z" fill="white"/>
<path d="M105.772 8.3984C105.375 8.19971 105.076 8.00103 104.828 7.65332C104.579 7.35529 104.479 7.00759 104.43 6.65988H105.971C106.021 6.90824 106.121 7.10693 106.32 7.25595C106.518 7.40496 106.767 7.50431 107.066 7.50431C107.364 7.50431 107.563 7.45463 107.762 7.35529C107.911 7.25595 108.01 7.10693 108.01 6.90824C108.01 6.70956 107.911 6.56054 107.712 6.4612C107.513 6.36185 107.215 6.26251 106.767 6.16316C106.32 6.06382 105.971 5.96448 105.673 5.81546C105.375 5.71612 105.126 5.51743 104.927 5.26907C104.728 5.02071 104.629 4.72268 104.629 4.3253C104.629 3.9776 104.728 3.67956 104.927 3.4312C105.126 3.13317 105.375 2.93449 105.772 2.78547C106.121 2.63645 106.568 2.53711 107.016 2.53711C107.712 2.53711 108.309 2.7358 108.756 3.0835C109.204 3.4312 109.403 3.92792 109.453 4.52399H108.01C108.01 4.27563 107.911 4.07694 107.712 3.9776C107.513 3.82858 107.314 3.77891 107.016 3.77891C106.717 3.77891 106.518 3.82858 106.369 3.92792C106.22 4.02727 106.17 4.17628 106.17 4.37497C106.17 4.57366 106.27 4.72268 106.469 4.82202C106.668 4.92136 106.966 5.02071 107.414 5.12005C107.861 5.2194 108.209 5.31874 108.508 5.46776C108.806 5.5671 109.055 5.76579 109.254 6.01415C109.453 6.26251 109.552 6.56054 109.552 6.95792C109.552 7.30562 109.453 7.60365 109.254 7.90168C109.055 8.19971 108.806 8.3984 108.408 8.54742C108.06 8.69643 107.613 8.79578 107.165 8.79578C106.618 8.64676 106.17 8.54742 105.772 8.3984Z" fill="white"/>
<path d="M116.417 2.53698V8.54729H114.875V7.80221C114.676 8.05057 114.427 8.24925 114.129 8.39827C113.83 8.54729 113.482 8.59696 113.084 8.59696C112.637 8.59696 112.189 8.49761 111.841 8.29893C111.493 8.10024 111.195 7.80221 110.996 7.40483C110.797 7.00745 110.697 6.56041 110.697 6.01402V2.4873H112.239V5.81533C112.239 6.31205 112.338 6.65975 112.587 6.90811C112.836 7.15647 113.134 7.30549 113.582 7.30549C113.98 7.30549 114.328 7.15647 114.576 6.90811C114.825 6.65975 114.925 6.26237 114.925 5.81533V2.4873H116.417V2.53698Z" fill="white"/>
<path d="M120.196 2.73566C120.494 2.53698 120.892 2.4873 121.29 2.4873V4.07681H120.892C120.395 4.07681 120.047 4.17615 119.798 4.42451C119.549 4.67287 119.45 5.02058 119.45 5.61664V8.59696H117.908V2.53698H119.45V3.48074C119.599 3.13304 119.898 2.88468 120.196 2.73566Z" fill="white"/>
</svg>
