<svg width="29" height="36" viewBox="0 0 29 36" fill="none" xmlns="http://www.w3.org/2000/svg">
<path d="M24.2612 19.2203C24.2115 14.8989 27.7923 12.763 27.9912 12.6636C25.9521 9.68332 22.8189 9.28594 21.6751 9.28594C19.0392 8.98791 16.4531 10.8754 15.1103 10.8754C13.7178 10.8754 11.6787 9.33562 9.39102 9.38529C6.5065 9.43496 3.8209 11.0741 2.32891 13.7067C-0.704808 18.972 1.53318 26.7208 4.46743 30.9926C5.90969 33.0788 7.65036 35.4134 9.88835 35.3141C12.0766 35.2147 12.8723 33.9232 15.5579 33.9232C18.1938 33.9232 18.9398 35.3141 21.2275 35.2644C23.5649 35.2147 25.0569 33.1782 26.4495 31.0423C28.1404 28.658 28.8367 26.2738 28.8367 26.1744C28.7869 26.1247 24.3109 24.4359 24.2612 19.2203ZM19.9344 6.50431C21.128 5.01415 21.9238 3.02727 21.6751 0.990723C19.9842 1.09007 17.8456 2.18285 16.6023 3.62334C15.5082 4.91481 14.5633 6.95136 14.8119 8.93824C16.7515 9.03758 18.7408 7.9448 19.9344 6.50431Z" fill="white"/>
</svg>
