<svg width="153" height="40" viewBox="0 0 153 40" fill="none" xmlns="http://www.w3.org/2000/svg">
<path d="M75.3041 23.2569C72.0715 23.2569 69.5351 25.6909 69.5351 29.0189C69.5351 32.2476 72.0715 34.7808 75.3041 34.7808C78.5368 34.7808 81.0732 32.3469 81.0732 29.0189C81.0732 25.5419 78.5368 23.2569 75.3041 23.2569ZM75.3041 32.3966C73.5635 32.3966 72.0715 30.9064 72.0715 28.9195C72.0715 26.883 73.5635 25.4425 75.3041 25.4425C77.0448 25.4425 78.5368 26.7837 78.5368 28.9195C78.5368 30.9064 77.0448 32.3966 75.3041 32.3966ZM62.7714 23.2569C59.5387 23.2569 57.0023 25.6909 57.0023 29.0189C57.0023 32.2476 59.5387 34.7808 62.7714 34.7808C66.004 34.7808 68.5404 32.3966 68.5404 29.0189C68.5404 25.5419 66.004 23.2569 62.7714 23.2569ZM62.7714 32.3966C61.0307 32.3966 59.5387 30.9064 59.5387 28.9195C59.5387 26.883 61.0307 25.4425 62.7714 25.4425C64.512 25.4425 66.004 26.7837 66.004 28.9195C66.004 30.9064 64.512 32.3966 62.7714 32.3966ZM47.8514 24.9955V27.4294H53.6205C53.4713 28.7705 52.9242 29.8633 52.2777 30.509C51.482 31.3038 50.1392 32.2476 47.8514 32.2476C44.2209 32.2476 41.5353 29.4163 41.5353 25.7902C41.5353 22.1642 44.3701 19.3329 47.8514 19.3329C49.7413 19.3329 51.2333 20.1276 52.2777 21.0714L54.0184 19.3329C52.5264 17.9917 50.6365 16.8989 47.9509 16.8989C43.1268 16.8989 38.9492 20.9224 38.9492 25.7902C38.9492 30.6581 43.1268 34.6815 47.9509 34.6815C50.6365 34.6815 52.5264 33.8867 54.1178 32.1482C55.7093 30.5587 56.2563 28.2738 56.2563 26.4856C56.2563 25.9392 56.2563 25.3928 56.1071 24.9955H47.8514ZM108.924 26.883C108.377 25.5418 107.034 23.2569 104.1 23.2569C101.116 23.2569 98.7284 25.5419 98.7284 29.0189C98.7284 32.2476 101.165 34.7808 104.398 34.7808C106.934 34.7808 108.576 33.1913 109.123 32.2476L107.233 30.9064C106.537 31.8502 105.741 32.4959 104.398 32.4959C103.055 32.4959 102.259 31.9495 101.563 30.7574L109.222 27.5287L108.924 26.883ZM101.116 28.7705C101.116 26.6346 102.856 25.3928 104.1 25.3928C105.045 25.3928 105.989 25.9392 106.238 26.585L101.116 28.7705ZM94.7995 34.2841H97.3359V17.4453H94.7995V34.2841ZM90.7711 24.4491C90.0749 23.7537 89.0305 23.1079 87.6877 23.1079C84.8529 23.1079 82.1673 25.6412 82.1673 28.8699C82.1673 32.0985 84.7037 34.5325 87.6877 34.5325C89.0305 34.5325 90.1246 33.8371 90.6716 33.1913H90.8209V33.9861C90.8209 36.122 89.6273 37.3638 87.7374 37.3638C86.2454 37.3638 85.201 36.271 84.9026 35.3272L82.7641 36.271C83.4604 37.7612 85.0518 39.6487 87.8866 39.6487C90.8706 39.6487 93.2578 37.9102 93.2578 33.7377V23.5053H90.8209L90.7711 24.4491ZM87.7871 32.3966C86.0465 32.3966 84.5545 30.9064 84.5545 28.9195C84.5545 26.883 86.0465 25.4425 87.7871 25.4425C89.5278 25.4425 90.8706 26.9327 90.8706 28.9195C90.9203 30.9064 89.5775 32.3966 87.7871 32.3966ZM120.661 17.4453H114.593V34.2344H117.13V27.9261H120.611C123.446 27.9261 126.131 25.8896 126.131 22.6609C126.131 19.4322 123.446 17.4453 120.661 17.4453ZM120.76 25.5419H117.13V19.7302H120.76C122.65 19.7302 123.744 21.3197 123.744 22.5615C123.595 24.0517 122.551 25.5419 120.76 25.5419ZM136.277 23.1079C134.387 23.1079 132.497 23.9027 131.851 25.6412L134.138 26.585C134.685 25.6412 135.481 25.3928 136.426 25.3928C137.769 25.3928 138.962 26.1876 139.112 27.5287V27.6777C138.714 27.4294 137.62 26.9823 136.575 26.9823C134.138 26.9823 131.751 28.3235 131.751 30.7574C131.751 33.0423 133.79 34.5325 135.929 34.5325C137.669 34.5325 138.465 33.7377 139.161 32.943H139.311V34.2841H141.748V27.8268C141.35 24.8464 139.062 23.1079 136.277 23.1079ZM135.979 32.3966C135.183 32.3966 133.939 31.9992 133.939 30.9064C133.939 29.5653 135.431 29.1679 136.625 29.1679C137.719 29.1679 138.216 29.4163 138.913 29.7143C138.664 31.3038 137.321 32.3966 135.979 32.3966ZM150.103 23.5053L147.268 30.7574H147.119L144.135 23.5053H141.449L145.875 33.7377L143.339 39.4003H145.875L152.739 23.555H150.103V23.5053ZM127.524 34.2841H130.06V17.4453H127.524V34.2841Z" fill="white"/>
<path d="M44.4697 2.44447C45.0665 2.74251 45.5638 3.18955 45.8622 3.78562C46.2104 4.38168 46.3595 5.02742 46.3595 5.7725C46.3595 6.51758 46.2104 7.21298 45.8622 7.75938C45.5141 8.30577 45.0665 8.75282 44.4697 9.10052C43.8729 9.39855 43.1766 9.54757 42.3809 9.54757H39.6953V1.94775H42.3312C43.1766 1.94775 43.8729 2.09677 44.4697 2.44447ZM44.1713 7.61036C44.6189 7.16331 44.8178 6.56725 44.8178 5.7725C44.8178 4.97775 44.6189 4.38168 44.1713 3.93463C43.7237 3.48759 43.1269 3.2889 42.3312 3.2889H41.237V8.30577H42.3312C43.0772 8.25609 43.7237 8.05741 44.1713 7.61036Z" fill="white"/>
<path d="M47.6022 2.54374C47.4032 2.39472 47.3535 2.14636 47.3535 1.898C47.3535 1.64964 47.453 1.45095 47.6022 1.25227C47.8011 1.10325 48 1.00391 48.2487 1.00391C48.4974 1.00391 48.746 1.10325 48.8952 1.25227C49.0942 1.40128 49.1439 1.64964 49.1439 1.898C49.1439 2.14636 49.0444 2.34505 48.8952 2.54374C48.746 2.74243 48.4974 2.7921 48.2487 2.7921C48 2.7921 47.8011 2.74243 47.6022 2.54374ZM49.0444 3.53718V9.54749H47.5027V3.53718H49.0444Z" fill="white"/>
<path d="M51.4815 9.3984C51.0836 9.19971 50.7852 9.00103 50.5365 8.65332C50.2879 8.35529 50.1884 8.00759 50.1387 7.65988H51.6804C51.7301 7.90824 51.8296 8.10693 52.0285 8.25595C52.2275 8.40496 52.4761 8.50431 52.7745 8.50431C53.0729 8.50431 53.2719 8.45463 53.4708 8.35529C53.62 8.25595 53.7195 8.10693 53.7195 7.90824C53.7195 7.70956 53.62 7.56054 53.4211 7.4612C53.2221 7.36185 52.9237 7.26251 52.4761 7.16316C52.0285 7.06382 51.6804 6.96448 51.382 6.81546C51.0836 6.71612 50.8349 6.51743 50.636 6.26907C50.4371 6.02071 50.3376 5.72268 50.3376 5.3253C50.3376 4.9776 50.4371 4.67956 50.636 4.4312C50.8349 4.13317 51.0836 3.93449 51.4815 3.78547C51.8296 3.63645 52.2772 3.53711 52.7248 3.53711C53.4211 3.53711 54.0179 3.7358 54.4655 4.0835C54.913 4.4312 55.112 4.92792 55.1617 5.52399H53.7195C53.7195 5.27563 53.62 5.07694 53.4211 4.9776C53.2221 4.82858 53.0232 4.77891 52.7248 4.77891C52.4264 4.77891 52.2275 4.82858 52.0783 4.92792C51.9291 5.02727 51.8793 5.17628 51.8793 5.37497C51.8793 5.57366 51.9788 5.72268 52.1777 5.82202C52.3767 5.92136 52.6751 6.02071 53.1227 6.12005C53.5703 6.2194 53.9184 6.31874 54.2168 6.46776C54.5152 6.5671 54.7638 6.76579 54.9628 7.01415C55.1617 7.26251 55.2612 7.56054 55.2612 7.95792C55.2612 8.30562 55.1617 8.60365 54.9628 8.90168C54.7638 9.19971 54.5152 9.3984 54.1173 9.54742C53.7692 9.69643 53.3216 9.79578 52.874 9.79578C52.3269 9.64676 51.8793 9.54742 51.4815 9.3984Z" fill="white"/>
<path d="M58.7934 3.68622C59.1416 3.48753 59.5394 3.38818 59.987 3.38818C60.4844 3.38818 60.9817 3.5372 61.3796 3.78556C61.7774 4.03392 62.1256 4.38162 62.3742 4.87834C62.6229 5.32539 62.7224 5.87178 62.7224 6.51752C62.7224 7.11358 62.6229 7.65997 62.3742 8.15669C62.1256 8.65341 61.7774 9.00112 61.3796 9.24948C60.9817 9.49784 60.4844 9.64685 59.987 9.64685C59.5394 9.64685 59.1416 9.54751 58.7934 9.39849C58.4453 9.19981 58.1966 9.00112 57.948 8.70309V12.4285H56.4062V3.5372H57.948V4.4313C58.1966 4.13326 58.4453 3.8849 58.7934 3.68622ZM60.932 5.57375C60.7828 5.32539 60.5838 5.1267 60.3352 4.97769C60.0865 4.82867 59.8378 4.779 59.5394 4.779C59.241 4.779 58.9924 4.82867 58.7437 4.97769C58.495 5.1267 58.2961 5.32539 58.1469 5.57375C57.9977 5.82211 57.948 6.16981 57.948 6.51752C57.948 6.86522 57.9977 7.21293 58.1469 7.46129C58.2961 7.70965 58.495 7.95801 58.7437 8.05735C58.9924 8.20637 59.241 8.25604 59.5394 8.25604C59.8378 8.25604 60.0865 8.20637 60.3352 8.05735C60.5838 7.90833 60.7828 7.70965 60.932 7.46129C61.0812 7.21293 61.1309 6.86522 61.1309 6.51752C61.1806 6.16981 61.0812 5.82211 60.932 5.57375Z" fill="white"/>
<path d="M64.9588 9.24948C64.5112 9.00112 64.1133 8.60374 63.8647 8.15669C63.616 7.70965 63.4668 7.16325 63.4668 6.51752C63.4668 5.92145 63.616 5.37506 63.8647 4.87834C64.1133 4.4313 64.5112 4.03392 64.9588 3.78556C65.4064 3.5372 65.9535 3.38818 66.5502 3.38818C67.147 3.38818 67.6444 3.5372 68.1417 3.78556C68.5893 4.03392 68.9872 4.4313 69.2358 4.87834C69.4845 5.32539 69.6337 5.87178 69.6337 6.51752C69.6337 7.11358 69.4845 7.65997 69.2358 8.15669C68.9374 8.60374 68.5893 9.00112 68.092 9.24948C67.5946 9.49784 67.0973 9.64685 66.5005 9.64685C65.9037 9.64685 65.4064 9.49784 64.9588 9.24948ZM67.2962 8.10702C67.5449 7.95801 67.7438 7.75932 67.893 7.51096C68.0422 7.2626 68.092 6.91489 68.092 6.51752C68.092 5.92145 67.9428 5.52408 67.6444 5.17638C67.346 4.87834 66.9978 4.72933 66.5502 4.72933C66.1027 4.72933 65.7545 4.87834 65.4561 5.17638C65.1577 5.47441 65.0085 5.92145 65.0085 6.51752C65.0085 7.11358 65.1577 7.51096 65.4561 7.85866C65.7545 8.15669 66.1027 8.30571 66.5502 8.30571C66.7989 8.30571 67.0476 8.25604 67.2962 8.10702Z" fill="white"/>
<path d="M75.8521 4.13345C76.2997 4.5805 76.4986 5.22623 76.4986 6.02098V9.54769H75.0066V6.21967C75.0066 5.72295 74.9071 5.37525 74.6585 5.12689C74.4098 4.87853 74.1114 4.72951 73.6638 4.72951C73.266 4.72951 72.9178 4.87853 72.6692 5.12689C72.4205 5.37525 72.321 5.77262 72.321 6.21967V9.54769H70.7793V3.53739H72.321V4.28246C72.52 4.0341 72.7686 3.83542 73.1168 3.6864C73.4152 3.53738 73.7633 3.48771 74.1611 3.48771C74.8077 3.43804 75.4045 3.6864 75.8521 4.13345Z" fill="white"/>
<path d="M78.0397 2.54374C77.8407 2.39472 77.791 2.14636 77.791 1.898C77.791 1.64964 77.8905 1.45095 78.0397 1.25227C78.2386 1.10325 78.4375 1.00391 78.6862 1.00391C78.9349 1.00391 79.1835 1.10325 79.3327 1.25227C79.5317 1.40128 79.5814 1.64964 79.5814 1.898C79.5814 2.14636 79.4819 2.34505 79.3327 2.54374C79.1835 2.74243 78.9349 2.7921 78.6862 2.7921C78.4873 2.7921 78.2386 2.74243 78.0397 2.54374ZM79.4819 3.53718V9.54749H77.9402V3.53718H79.4819Z" fill="white"/>
<path d="M83.3121 3.68606C83.6602 3.48737 84.0581 3.4377 84.5057 3.4377C85.003 3.4377 85.5003 3.58671 85.8982 3.83507C86.296 4.08343 86.6442 4.43113 86.8928 4.92785C87.1415 5.3749 87.241 5.92129 87.241 6.56703C87.241 7.16309 87.1415 7.70949 86.8928 8.20621C86.6442 8.70293 86.296 9.05063 85.8982 9.29899C85.5003 9.54735 85.003 9.69636 84.5057 9.69636C84.0581 9.69636 83.6602 9.59702 83.3121 9.448C82.9639 9.24932 82.7153 9.05063 82.5163 8.7526V9.59702H80.9746V1.50049H82.5163V4.43113C82.7153 4.1331 82.9639 3.88474 83.3121 3.68606ZM85.4506 5.57359C85.3014 5.32523 85.1025 5.12654 84.8538 4.97753C84.6051 4.82851 84.3565 4.77884 84.0581 4.77884C83.7597 4.77884 83.511 4.82851 83.2623 4.97753C83.0137 5.12654 82.8147 5.32523 82.6655 5.57359C82.5163 5.82195 82.4666 6.16965 82.4666 6.51736C82.4666 6.86506 82.5163 7.21277 82.6655 7.46113C82.8147 7.70949 83.0137 7.95784 83.2623 8.05719C83.511 8.2062 83.7597 8.25588 84.0581 8.25588C84.3565 8.25588 84.6051 8.2062 84.8538 8.05719C85.1025 7.90817 85.3014 7.70949 85.4506 7.46113C85.5998 7.21277 85.6495 6.86506 85.6495 6.51736C85.6993 6.16965 85.5998 5.82195 85.4506 5.57359Z" fill="white"/>
<path d="M89.8757 1.50049V9.54735H88.334V1.50049H89.8757Z" fill="white"/>
<path d="M96.9376 7.01424H92.5114C92.5611 7.46129 92.7103 7.80899 92.959 8.05735C93.2076 8.30571 93.5558 8.40505 93.9536 8.40505C94.5007 8.40505 94.8986 8.15669 95.1472 7.65997H96.7884C96.6392 8.25604 96.2911 8.70309 95.7938 9.10046C95.2964 9.49784 94.6996 9.64685 93.9536 9.64685C93.3568 9.64685 92.8595 9.49784 92.4119 9.24948C91.9643 9.00112 91.6162 8.60374 91.3178 8.15669C91.0691 7.70965 90.9199 7.16325 90.9199 6.51752C90.9199 5.87178 91.0691 5.32539 91.3178 4.87834C91.5665 4.4313 91.9146 4.03392 92.3622 3.78556C92.8098 3.5372 93.3568 3.38818 93.9536 3.38818C94.5504 3.38818 95.0478 3.48753 95.4954 3.73589C95.943 3.98425 96.2911 4.33195 96.5398 4.779C96.7884 5.22605 96.9376 5.77244 96.9376 6.31883C96.9874 6.61686 96.9874 6.81555 96.9376 7.01424ZM95.3959 5.97113C95.3959 5.57375 95.2467 5.27572 94.9483 5.02736C94.6499 4.779 94.3515 4.67966 93.9536 4.67966C93.5558 4.67966 93.2574 4.779 93.0087 5.02736C92.76 5.27572 92.6108 5.57375 92.5114 5.97113H95.3959Z" fill="white"/>
<path d="M101.663 9.3984C101.265 9.19971 100.967 9.00103 100.718 8.65332C100.47 8.35529 100.37 8.00759 100.32 7.65988H101.862C101.912 7.90824 102.011 8.10693 102.21 8.25595C102.409 8.40496 102.658 8.50431 102.956 8.50431C103.255 8.50431 103.454 8.45463 103.652 8.35529C103.802 8.25595 103.901 8.10693 103.901 7.90824C103.901 7.70956 103.802 7.56054 103.603 7.4612C103.404 7.36185 103.105 7.26251 102.658 7.16316C102.21 7.06382 101.862 6.96448 101.564 6.81546C101.265 6.71612 101.017 6.51743 100.818 6.26907C100.619 6.02071 100.519 5.72268 100.519 5.3253C100.519 4.9776 100.619 4.67956 100.818 4.4312C101.017 4.13317 101.265 3.93449 101.663 3.78547C102.011 3.63645 102.459 3.53711 102.906 3.53711C103.603 3.53711 104.2 3.7358 104.647 4.0835C105.095 4.4312 105.294 4.92792 105.343 5.52399H103.851C103.851 5.27563 103.752 5.07694 103.553 4.9776C103.354 4.82858 103.155 4.77891 102.857 4.77891C102.558 4.77891 102.359 4.82858 102.21 4.92792C102.061 5.02727 102.011 5.17628 102.011 5.37497C102.011 5.57366 102.111 5.72268 102.31 5.82202C102.509 5.92136 102.807 6.02071 103.255 6.12005C103.702 6.2194 104.05 6.31874 104.349 6.46776C104.647 6.5671 104.896 6.76579 105.095 7.01415C105.294 7.26251 105.393 7.56054 105.393 7.95792C105.393 8.30562 105.294 8.60365 105.095 8.90168C104.896 9.19971 104.647 9.3984 104.249 9.54742C103.901 9.69643 103.454 9.79578 103.006 9.79578C102.509 9.64676 102.061 9.54742 101.663 9.3984Z" fill="white"/>
<path d="M112.305 3.53698V9.54729H110.764V8.80221C110.565 9.05057 110.316 9.24925 110.018 9.39827C109.719 9.54729 109.371 9.59696 108.973 9.59696C108.526 9.59696 108.078 9.49761 107.73 9.29893C107.382 9.10024 107.083 8.80221 106.884 8.40483C106.685 8.00745 106.586 7.56041 106.586 7.01402V3.4873H108.128V6.81533C108.128 7.31205 108.227 7.65975 108.476 7.90811C108.724 8.15647 109.023 8.30549 109.47 8.30549C109.868 8.30549 110.216 8.15647 110.465 7.90811C110.714 7.65975 110.813 7.26237 110.813 6.81533V3.4873H112.305V3.53698Z" fill="white"/>
<path d="M116.085 3.73566C116.383 3.53698 116.781 3.4873 117.179 3.4873V5.07681H116.781C116.284 5.07681 115.935 5.17615 115.687 5.42451C115.438 5.67287 115.339 6.02058 115.339 6.61664V9.59696H113.797V3.53698H115.339V4.48074C115.538 4.13304 115.786 3.88468 116.085 3.73566Z" fill="white"/>
<path d="M0.40625 18.4881V2.94081C0.40625 1.50032 1.99771 0.556557 3.24104 1.30164L16.7187 9.10014L30.2461 16.849C31.4894 17.594 31.4894 19.3822 30.2461 20.1273L16.7187 27.9258L3.24104 35.7243C1.99771 36.4694 0.40625 35.5256 0.40625 34.0851V18.4881Z" fill="white" stroke="black" stroke-width="0.75" stroke-miterlimit="10"/>
<path d="M1.10254 1.74902L23.5819 24.2008" stroke="black" stroke-width="0.75" stroke-miterlimit="10"/>
<path d="M24 10L1 35" stroke="black" stroke-width="0.75" stroke-miterlimit="10"/>
</svg>
