<svg width="157" height="41" viewBox="0 0 157 41" fill="none" xmlns="http://www.w3.org/2000/svg">
<path d="M76.9623 23.3609C73.6366 23.3609 71.0272 25.8867 71.0272 29.3403C71.0272 32.6908 73.6366 35.3196 76.9623 35.3196C80.2881 35.3196 82.8975 32.7939 82.8975 29.3403C82.8975 25.732 80.2881 23.3609 76.9623 23.3609ZM76.9623 32.8454C75.1715 32.8454 73.6366 31.299 73.6366 29.2372C73.6366 27.1238 75.1715 25.6289 76.9623 25.6289C78.7531 25.6289 80.2881 27.0207 80.2881 29.2372C80.2881 31.299 78.7531 32.8454 76.9623 32.8454ZM64.0687 23.3609C60.7429 23.3609 58.1335 25.8867 58.1335 29.3403C58.1335 32.6908 60.7429 35.3196 64.0687 35.3196C67.3944 35.3196 70.0039 32.8454 70.0039 29.3403C70.0039 25.732 67.3944 23.3609 64.0687 23.3609ZM64.0687 32.8454C62.2779 32.8454 60.7429 31.299 60.7429 29.2372C60.7429 27.1238 62.2779 25.6289 64.0687 25.6289C65.8595 25.6289 67.3944 27.0207 67.3944 29.2372C67.3944 31.299 65.8595 32.8454 64.0687 32.8454ZM48.7191 25.165V27.6908H54.6543C54.5008 29.0825 53.938 30.2165 53.2728 30.8867C52.4542 31.7114 51.0727 32.6908 48.7191 32.6908C44.9841 32.6908 42.2211 29.7526 42.2211 25.9897C42.2211 22.2269 45.1376 19.2887 48.7191 19.2887C50.6634 19.2887 52.1984 20.1135 53.2728 21.0928L55.0636 19.2887C53.5287 17.897 51.5844 16.7629 48.8215 16.7629C43.8584 16.7629 39.5605 20.9382 39.5605 25.9897C39.5605 31.0413 43.8584 35.2166 48.8215 35.2166C51.5844 35.2166 53.5287 34.3918 55.1659 32.5877C56.8032 30.9382 57.366 28.5671 57.366 26.7114C57.366 26.1444 57.366 25.5774 57.2125 25.165H48.7191ZM111.55 27.1238C110.987 25.732 109.606 23.3609 106.587 23.3609C103.517 23.3609 101.061 25.732 101.061 29.3403C101.061 32.6908 103.568 35.3196 106.894 35.3196C109.503 35.3196 111.192 33.6702 111.755 32.6908L109.81 31.299C109.094 32.2784 108.275 32.9485 106.894 32.9485C105.513 32.9485 104.694 32.3815 103.978 31.1444L111.857 27.7939L111.55 27.1238ZM103.517 29.0825C103.517 26.866 105.308 25.5774 106.587 25.5774C107.559 25.5774 108.531 26.1444 108.787 26.8145L103.517 29.0825ZM97.0191 34.8042H99.6285V17.33H97.0191V34.8042ZM92.8747 24.598C92.1584 23.8763 91.0839 23.2062 89.7025 23.2062C86.786 23.2062 84.0231 25.8351 84.0231 29.1856C84.0231 32.5361 86.6325 35.0619 89.7025 35.0619C91.0839 35.0619 92.2096 34.3403 92.7724 33.6702H92.9259V34.4949C92.9259 36.7114 91.6979 38.0001 89.7536 38.0001C88.2187 38.0001 87.1442 36.866 86.8372 35.8867L84.6371 36.866C85.3534 38.4124 86.9907 40.3712 89.9071 40.3712C92.977 40.3712 95.433 38.5671 95.433 34.2372V23.6186H92.9259L92.8747 24.598ZM89.8048 32.8454C88.014 32.8454 86.479 31.299 86.479 29.2372C86.479 27.1238 88.014 25.6289 89.8048 25.6289C91.5956 25.6289 92.977 27.1753 92.977 29.2372C93.0282 31.299 91.6467 32.8454 89.8048 32.8454ZM123.625 17.33H117.383V34.7526H119.992V28.2062H123.574C126.49 28.2062 129.253 26.0928 129.253 22.7423C129.253 19.3918 126.49 17.33 123.625 17.33ZM123.727 25.732H119.992V19.7011H123.727C125.672 19.7011 126.797 21.3506 126.797 22.6392C126.644 24.1856 125.569 25.732 123.727 25.732ZM139.691 23.2062C137.747 23.2062 135.802 24.031 135.137 25.8351L137.491 26.8145C138.054 25.8351 138.872 25.5774 139.844 25.5774C141.226 25.5774 142.454 26.4021 142.607 27.7939V27.9485C142.198 27.6908 141.072 27.2269 139.998 27.2269C137.491 27.2269 135.035 28.6186 135.035 31.1444C135.035 33.5155 137.133 35.0619 139.333 35.0619C141.124 35.0619 141.942 34.2372 142.658 33.4124H142.812V34.8042H145.319V28.1031C144.91 25.0104 142.556 23.2062 139.691 23.2062ZM139.384 32.8454C138.565 32.8454 137.286 32.433 137.286 31.299C137.286 29.9073 138.821 29.4949 140.049 29.4949C141.175 29.4949 141.686 29.7526 142.403 30.0619C142.147 31.7114 140.765 32.8454 139.384 32.8454ZM153.915 23.6186L150.998 31.1444H150.845L147.775 23.6186H145.012L149.566 34.2372L146.956 40.1135H149.566L156.627 23.6702H153.915V23.6186ZM130.686 34.8042H133.295V17.33H130.686V34.8042Z" fill="#1E94A4"/>
<path d="M1.28938 3.30933C0.880059 3.7217 0.726562 4.44335 0.726562 5.26809V36.0928C0.726562 36.9176 0.982389 37.6392 1.44288 38.0516L1.59637 38.2062L18.7879 20.8866V20.6289L1.28938 3.30933Z" fill="#1E94A4"/>
<path d="M1.59655 38.4639L1.34072 38.2062C0.880234 37.7422 0.573242 36.969 0.573242 36.1443V5.26801C0.573242 4.28863 0.777903 3.61852 1.18723 3.20615L1.34072 3.05151L18.9927 20.5257V20.9381L1.59655 38.4639ZM1.34072 3.56698C1.08489 3.9278 0.982564 4.49481 0.982564 5.26801V36.0928C0.982564 36.8659 1.23839 37.4845 1.59655 37.8969L18.5834 20.7835V20.6804L1.34072 3.56698Z" fill="#1E94A4"/>
<path d="M24.3141 26.7629L18.6348 21.0412V20.6289L24.3141 14.9072L24.4676 15.0619L31.2726 18.9794C33.2169 20.1134 33.2169 21.9175 31.2726 23L24.3141 26.7629Z" fill="#1E94A4"/>
<path d="M24.2625 26.969L18.4297 21.0927V20.5257L24.3137 14.5979L24.5695 14.8556L31.3233 18.7732C32.3466 19.3402 32.8583 20.1134 32.8583 20.9381C32.8583 21.7628 32.2955 22.536 31.3233 23.1031L24.2625 26.969ZM18.7878 20.9381L24.3137 26.5051L31.1187 22.7938C31.9885 22.2783 32.449 21.6082 32.5001 20.9381C32.5001 20.268 32.0396 19.5979 31.1187 19.0824L24.3137 15.1649L18.7878 20.6804V20.9381Z" fill="#1E94A4"/>
<path d="M24.4167 26.6085L18.635 20.7322L1.29004 38.2064C2.00635 38.9281 2.92733 38.9281 4.20646 38.361L24.4167 26.6085Z" fill="#1E94A4"/>
<path d="M2.6203 38.928C2.05748 38.928 1.54583 38.7218 1.18767 38.3094L1.03418 38.1548L18.5838 20.4744L24.7237 26.6599L4.30875 38.5156C3.69477 38.7733 3.13195 38.928 2.6203 38.928Z" fill="#1E94A4"/>
<path d="M24.4167 14.9071L4.20646 3.3092C2.97849 2.58755 2.00635 2.74218 1.29004 3.46383L18.5839 20.7834L24.4167 14.9071Z" fill="#1E94A4"/>
<path d="M18.635 20.9897L18.4815 20.8351L1.03418 3.46394L1.18767 3.3093C1.75049 2.74229 2.72263 2.27837 4.30875 3.15466L24.7237 14.8557L18.635 20.9897ZM1.597 3.46394L18.635 20.4743L24.1609 14.9072L4.10409 3.46394C3.08079 2.89693 2.26214 2.89693 1.597 3.46394Z" fill="#1E94A4"/>
<path d="M45.24 1.76302C45.854 2.0723 46.3656 2.53622 46.6726 3.15478C47.0308 3.77333 47.1843 4.44344 47.1843 5.21663C47.1843 5.98983 47.0308 6.71148 46.6726 7.27849C46.3145 7.8455 45.854 8.30941 45.24 8.67024C44.626 8.97952 43.9097 9.13416 43.091 9.13416H40.3281V1.24756H43.0399C43.9097 1.24756 44.626 1.4022 45.24 1.76302ZM44.933 7.12385C45.3935 6.65993 45.5981 6.04137 45.5981 5.21663C45.5981 4.39189 45.3935 3.77333 44.933 3.30941C44.4725 2.8455 43.8585 2.63931 43.0399 2.63931H41.9142V7.8455H43.0399C43.8074 7.79395 44.4725 7.58776 44.933 7.12385Z" fill="#1E94A4"/>
<path d="M48.4638 1.866C48.2592 1.71137 48.208 1.45363 48.208 1.1959C48.208 0.938169 48.3103 0.731984 48.4638 0.525798C48.6685 0.371159 48.8732 0.268066 49.129 0.268066C49.3848 0.268066 49.6406 0.371159 49.7941 0.525798C49.9988 0.680438 50.05 0.938169 50.05 1.1959C50.05 1.45363 49.9476 1.65982 49.7941 1.866C49.6406 2.07219 49.3848 2.12374 49.129 2.12374C48.8732 2.12374 48.6685 2.07219 48.4638 1.866ZM49.9476 2.89693V9.13405H48.3615V2.89693H49.9476Z" fill="#1E94A4"/>
<path d="M52.4547 8.97945C52.0454 8.77326 51.7384 8.56708 51.4826 8.20625C51.2267 7.89697 51.1244 7.53615 51.0732 7.17532H52.6594C52.7105 7.43306 52.8129 7.63924 53.0175 7.79388C53.2222 7.94852 53.478 8.05161 53.785 8.05161C54.092 8.05161 54.2966 8.00007 54.5013 7.89697C54.6548 7.79388 54.7571 7.63924 54.7571 7.43306C54.7571 7.22687 54.6548 7.07223 54.4501 6.96914C54.2455 6.86604 53.9385 6.76295 53.478 6.65986C53.0175 6.55677 52.6594 6.45367 52.3524 6.29903C52.0454 6.19594 51.7896 5.98976 51.5849 5.73202C51.3802 5.47429 51.2779 5.16501 51.2779 4.75264C51.2779 4.39182 51.3802 4.08254 51.5849 3.82481C51.7896 3.51553 52.0454 3.30934 52.4547 3.1547C52.8129 3.00007 53.2733 2.89697 53.7338 2.89697C54.4501 2.89697 55.0641 3.10316 55.5246 3.46398C55.9851 3.82481 56.1898 4.34027 56.2409 4.95883H54.7571C54.7571 4.7011 54.6548 4.49491 54.4501 4.39182C54.2455 4.23718 54.0408 4.18563 53.7338 4.18563C53.4268 4.18563 53.2222 4.23718 53.0687 4.34027C52.9152 4.44336 52.864 4.598 52.864 4.80419C52.864 5.01037 52.9664 5.16501 53.171 5.26811C53.3757 5.3712 53.6827 5.47429 54.1432 5.57738C54.6036 5.68048 54.9618 5.78357 55.2688 5.93821C55.5758 6.0413 55.8316 6.24749 56.0363 6.50522C56.2409 6.76295 56.3433 7.07223 56.3433 7.4846C56.3433 7.84543 56.2409 8.1547 56.0363 8.46398C55.8316 8.77326 55.5758 8.97945 55.1665 9.13409C54.8083 9.28872 54.3478 9.39182 53.8873 9.39182C53.3245 9.23718 52.864 9.13409 52.4547 8.97945Z" fill="#1E94A4"/>
<path d="M59.9755 3.05147C60.3336 2.84528 60.7429 2.74219 61.2034 2.74219C61.7151 2.74219 62.2267 2.89683 62.6361 3.15456C63.0454 3.41229 63.4035 3.77312 63.6594 4.28858C63.9152 4.7525 64.0175 5.31951 64.0175 5.98961C64.0175 6.60817 63.9152 7.17518 63.6594 7.69064C63.4035 8.20611 63.0454 8.56693 62.6361 8.82466C62.2267 9.08239 61.7151 9.23703 61.2034 9.23703C60.7429 9.23703 60.3336 9.13394 59.9755 8.9793C59.6173 8.77312 59.3615 8.56693 59.1056 8.25765V12.1236H57.5195V2.89683H59.1056V3.82466C59.3615 3.51538 59.6173 3.25765 59.9755 3.05147ZM62.1756 5.01023C62.0221 4.7525 61.8174 4.54631 61.5616 4.39167C61.3058 4.23703 61.0499 4.18549 60.7429 4.18549C60.4359 4.18549 60.1801 4.23703 59.9243 4.39167C59.6685 4.54631 59.4638 4.7525 59.3103 5.01023C59.1568 5.26796 59.1056 5.62879 59.1056 5.98961C59.1056 6.35044 59.1568 6.71126 59.3103 6.96899C59.4638 7.22672 59.6685 7.48446 59.9243 7.58755C60.1801 7.74219 60.4359 7.79373 60.7429 7.79373C61.0499 7.79373 61.3058 7.74219 61.5616 7.58755C61.8174 7.43291 62.0221 7.22672 62.1756 6.96899C62.3291 6.71126 62.3802 6.35044 62.3802 5.98961C62.4314 5.62879 62.3291 5.26796 62.1756 5.01023Z" fill="#1E94A4"/>
<path d="M66.3201 8.82466C65.8596 8.56693 65.4503 8.15456 65.1945 7.69064C64.9387 7.22672 64.7852 6.65971 64.7852 5.98961C64.7852 5.37105 64.9387 4.80404 65.1945 4.28858C65.4503 3.82466 65.8596 3.41229 66.3201 3.15456C66.7806 2.89683 67.3434 2.74219 67.9574 2.74219C68.5714 2.74219 69.083 2.89683 69.5947 3.15456C70.0552 3.41229 70.4645 3.82466 70.7203 4.28858C70.9761 4.7525 71.1296 5.31951 71.1296 5.98961C71.1296 6.60817 70.9761 7.17518 70.7203 7.69064C70.4133 8.15456 70.0552 8.56693 69.5435 8.82466C69.0319 9.08239 68.5202 9.23703 67.9062 9.23703C67.2922 9.23703 66.7806 9.08239 66.3201 8.82466ZM68.7249 7.63909C68.9807 7.48446 69.1854 7.27827 69.3389 7.02054C69.4924 6.76281 69.5435 6.40198 69.5435 5.98961C69.5435 5.37105 69.39 4.95868 69.083 4.59786C68.776 4.28858 68.4179 4.13394 67.9574 4.13394C67.4969 4.13394 67.1388 4.28858 66.8318 4.59786C66.5248 4.90714 66.3713 5.37105 66.3713 5.98961C66.3713 6.60817 66.5248 7.02054 66.8318 7.38136C67.1388 7.69064 67.4969 7.84528 67.9574 7.84528C68.2132 7.84528 68.469 7.79373 68.7249 7.63909Z" fill="#1E94A4"/>
<path d="M77.5255 3.51547C77.986 3.97939 78.1906 4.6495 78.1906 5.47424V9.13403H76.6557V5.68042C76.6557 5.16496 76.5534 4.80413 76.2975 4.5464C76.0417 4.28867 75.7347 4.13403 75.2742 4.13403C74.8649 4.13403 74.5067 4.28867 74.2509 4.5464C73.9951 4.80413 73.8928 5.21651 73.8928 5.68042V9.13403H72.3066V2.89692H73.8928V3.67011C74.0974 3.41238 74.3532 3.2062 74.7114 3.05156C75.0184 2.89692 75.3766 2.84537 75.7859 2.84537C76.451 2.79383 77.065 3.05156 77.5255 3.51547Z" fill="#1E94A4"/>
<path d="M79.7763 1.866C79.5717 1.71137 79.5205 1.45363 79.5205 1.1959C79.5205 0.938169 79.6228 0.731984 79.7763 0.525798C79.981 0.371159 80.1856 0.268066 80.4415 0.268066C80.6973 0.268066 80.9531 0.371159 81.1066 0.525798C81.3113 0.680438 81.3625 0.938169 81.3625 1.1959C81.3625 1.45363 81.2601 1.65982 81.1066 1.866C80.9531 2.07219 80.6973 2.12374 80.4415 2.12374C80.2368 2.12374 79.981 2.07219 79.7763 1.866ZM81.2601 2.89693V9.13405H79.674V2.89693H81.2601Z" fill="#1E94A4"/>
<path d="M85.1997 3.05149C85.5578 2.8453 85.9672 2.79376 86.4277 2.79376C86.9393 2.79376 87.451 2.9484 87.8603 3.20613C88.2696 3.46386 88.6278 3.82468 88.8836 4.34015C89.1394 4.80407 89.2417 5.37108 89.2417 6.04118C89.2417 6.65974 89.1394 7.22675 88.8836 7.74221C88.6278 8.25767 88.2696 8.6185 87.8603 8.87623C87.451 9.13396 86.9393 9.2886 86.4277 9.2886C85.9672 9.2886 85.5578 9.18551 85.1997 9.03087C84.8415 8.82468 84.5857 8.6185 84.381 8.30922V9.18551H82.7949V0.783447H84.381V3.82468C84.5857 3.51541 84.8415 3.25767 85.1997 3.05149ZM87.3998 5.01025C87.2463 4.75252 87.0416 4.54633 86.7858 4.39169C86.53 4.23706 86.2742 4.18551 85.9672 4.18551C85.6602 4.18551 85.4044 4.23706 85.1485 4.39169C84.8927 4.54633 84.688 4.75252 84.5345 5.01025C84.381 5.26798 84.3299 5.62881 84.3299 5.98963C84.3299 6.35046 84.381 6.71128 84.5345 6.96901C84.688 7.22675 84.8927 7.48448 85.1485 7.58757C85.4044 7.74221 85.6602 7.79376 85.9672 7.79376C86.2742 7.79376 86.53 7.74221 86.7858 7.58757C87.0416 7.43293 87.2463 7.22675 87.3998 6.96901C87.5533 6.71128 87.6044 6.35046 87.6044 5.98963C87.6556 5.62881 87.5533 5.26798 87.3998 5.01025Z" fill="#1E94A4"/>
<path d="M91.9543 0.783447V9.13396H90.3682V0.783447H91.9543Z" fill="#1E94A4"/>
<path d="M99.2193 6.50507H94.6656C94.7168 6.96899 94.8703 7.32982 95.1261 7.58755C95.3819 7.84528 95.7401 7.94837 96.1494 7.94837C96.7122 7.94837 97.1215 7.69064 97.3774 7.17518H99.0658C98.9123 7.79373 98.5542 8.25765 98.0425 8.67002C97.5309 9.08239 96.9169 9.23703 96.1494 9.23703C95.5354 9.23703 95.0238 9.08239 94.5633 8.82466C94.1028 8.56693 93.7446 8.15456 93.4376 7.69064C93.1818 7.22672 93.0283 6.65971 93.0283 5.98961C93.0283 5.31951 93.1818 4.7525 93.4376 4.28858C93.6935 3.82466 94.0516 3.41229 94.5121 3.15456C94.9726 2.89683 95.5354 2.74219 96.1494 2.74219C96.7634 2.74219 97.275 2.84528 97.7355 3.10301C98.196 3.36074 98.5542 3.72157 98.81 4.18549C99.0658 4.6494 99.2193 5.21641 99.2193 5.78342C99.2705 6.0927 99.2705 6.29889 99.2193 6.50507ZM97.6332 5.4226C97.6332 5.01023 97.4797 4.70095 97.1727 4.44322C96.8657 4.18549 96.5587 4.08239 96.1494 4.08239C95.7401 4.08239 95.4331 4.18549 95.1773 4.44322C94.9214 4.70095 94.7679 5.01023 94.6656 5.4226H97.6332Z" fill="#1E94A4"/>
<path d="M104.08 8.97945C103.67 8.77326 103.363 8.56708 103.108 8.20625C102.852 7.89697 102.749 7.53615 102.698 7.17532H104.284C104.336 7.43306 104.438 7.63924 104.643 7.79388C104.847 7.94852 105.103 8.05161 105.41 8.05161C105.717 8.05161 105.922 8.00007 106.126 7.89697C106.28 7.79388 106.382 7.63924 106.382 7.43306C106.382 7.22687 106.28 7.07223 106.075 6.96914C105.87 6.86604 105.564 6.76295 105.103 6.65986C104.643 6.55677 104.284 6.45367 103.977 6.29903C103.67 6.19594 103.415 5.98976 103.21 5.73202C103.005 5.47429 102.903 5.16501 102.903 4.75264C102.903 4.39182 103.005 4.08254 103.21 3.82481C103.415 3.51553 103.67 3.30934 104.08 3.1547C104.438 3.00007 104.898 2.89697 105.359 2.89697C106.075 2.89697 106.689 3.10316 107.15 3.46398C107.61 3.82481 107.815 4.34027 107.866 4.95883H106.331C106.331 4.7011 106.229 4.49491 106.024 4.39182C105.819 4.23718 105.615 4.18563 105.308 4.18563C105.001 4.18563 104.796 4.23718 104.643 4.34027C104.489 4.44336 104.438 4.598 104.438 4.80419C104.438 5.01037 104.54 5.16501 104.745 5.26811C104.95 5.3712 105.257 5.47429 105.717 5.57738C106.177 5.68048 106.536 5.78357 106.843 5.93821C107.15 6.0413 107.405 6.24749 107.61 6.50522C107.815 6.76295 107.917 7.07223 107.917 7.4846C107.917 7.84543 107.815 8.1547 107.61 8.46398C107.405 8.77326 107.15 8.97945 106.74 9.13409C106.382 9.28872 105.922 9.39182 105.461 9.39182C104.95 9.23718 104.489 9.13409 104.08 8.97945Z" fill="#1E94A4"/>
<path d="M115.03 2.89701V9.13412H113.443V8.36092C113.239 8.61865 112.983 8.82484 112.676 8.97948C112.369 9.13412 112.011 9.18566 111.601 9.18566C111.141 9.18566 110.68 9.08257 110.322 8.87639C109.964 8.6702 109.657 8.36092 109.453 7.94855C109.248 7.53618 109.146 7.07226 109.146 6.50525V2.84546H110.732V6.29907C110.732 6.81453 110.834 7.17536 111.09 7.43309C111.346 7.69082 111.653 7.84546 112.113 7.84546C112.522 7.84546 112.881 7.69082 113.136 7.43309C113.392 7.17536 113.495 6.76298 113.495 6.29907V2.84546H115.03V2.89701Z" fill="#1E94A4"/>
<path d="M118.918 3.10319C119.225 2.89701 119.634 2.84546 120.044 2.84546V4.49494H119.634C119.123 4.49494 118.765 4.59804 118.509 4.85577C118.253 5.1135 118.151 5.47432 118.151 6.09288V9.18566H116.564V2.89701H118.151V3.87639C118.355 3.51556 118.611 3.25783 118.918 3.10319Z" fill="#1E94A4"/>
<path d="M23.9552 27.1237L0.828508 3.9278L0.777344 3.87626C0.777344 3.51543 1.34016 3.05151 1.34016 3.05151L24.9273 26.6082L23.9552 27.1237Z" fill="white"/>
<path d="M24.7225 14.6494L1.18652 38.3092" stroke="white" stroke-width="2" stroke-miterlimit="10"/>
</svg>
