<?xml version="1.0" encoding="utf-8"?>
<!-- Generator: Adobe Illustrator 24.3.0, SVG Export Plug-In . SVG Version: 6.00 Build 0)  -->
<svg version="1.1" id="Calque_1" xmlns="http://www.w3.org/2000/svg" xmlns:xlink="http://www.w3.org/1999/xlink" x="0px" y="0px"
	 viewBox="0 0 20 17" style="enable-background:new 0 0 20 17;" xml:space="preserve">
<style type="text/css">
	.st0{fill:none;}
	.st1{fill:#3D5B82;}
	.st2{fill:#2D3138;}
	.st3{clip-path:url(#SVGID_13_);}
</style>
<path class="st0" d="M8,17v-6h4v6h5V9h3L10,0L0,9h3v8H8z"/>
<g>
	<g>
		<polygon id="SVGID_1_" class="st1" points="8,17 8,11 12,11 12,17 17,17 17,9 20,9 10,0 0,9 3,9 3,17 		"/>
	</g>
	<g>
		<g>
			<polygon id="SVGID_2_" class="st2" points="8,17 8,11 12,11 12,17 17,17 17,9 20,9 10,0 0,9 3,9 3,17 			"/>
		</g>
		<g>
			<g>
				<polygon id="SVGID_3_" class="st2" points="8,17 8,11 12,11 12,17 17,17 17,9 20,9 10,0 0,9 3,9 3,17 				"/>
			</g>
			<g>
				<g>
					<polygon id="SVGID_4_" class="st2" points="8,17 8,11 12,11 12,17 17,17 17,9 20,9 10,0 0,9 3,9 3,17 					"/>
				</g>
				<g>
					<g>
						<polygon id="SVGID_5_" class="st2" points="8,17 8,11 12,11 12,17 17,17 17,9 20,9 10,0 0,9 3,9 3,17 						"/>
					</g>
					<g>
						<g>
							<polygon id="SVGID_6_" class="st2" points="8,17 8,11 12,11 12,17 17,17 17,9 20,9 10,0 0,9 3,9 3,17 							"/>
						</g>
						<g>
							<g>
								<polygon id="SVGID_7_" class="st2" points="8,17 8,11 12,11 12,17 17,17 17,9 20,9 10,0 0,9 3,9 3,17 								"/>
							</g>
							<g>
								<g>
									<polygon id="SVGID_8_" class="st2" points="8,17 8,11 12,11 12,17 17,17 17,9 20,9 10,0 0,9 3,9 3,17 									"/>
								</g>
								<g>
									<g>
										<polygon id="SVGID_9_" class="st2" points="8,17 8,11 12,11 12,17 17,17 17,9 20,9 10,0 0,9 3,9 3,17 										"/>
									</g>
									<g>
										<g>
											<polygon id="SVGID_10_" class="st2" points="8,17 8,11 12,11 12,17 17,17 17,9 20,9 10,0 0,9 3,9 3,17 											"/>
										</g>
										<g>
											<g>
												<polygon id="SVGID_11_" class="st2" points="8,17 8,11 12,11 12,17 17,17 17,9 20,9 10,0 0,9 3,9 3,17 												"/>
											</g>
											<g>
												<defs>
													<polygon id="SVGID_12_" points="8,17 8,11 12,11 12,17 17,17 17,9 20,9 10,0 0,9 3,9 3,17 													"/>
												</defs>
												<use xlink:href="#SVGID_12_"  style="overflow:visible;fill:#2D3138;"/>
												<clipPath id="SVGID_13_">
													<use xlink:href="#SVGID_12_"  style="overflow:visible;"/>
												</clipPath>
												<g class="st3">
													<g transform="translate(-2 -3)">
														<rect y="0" class="st2" width="24" height="24"/>
													</g>
												</g>
											</g>
										</g>
									</g>
								</g>
							</g>
						</g>
					</g>
				</g>
			</g>
		</g>
	</g>
</g>
</svg>
