<?xml version="1.0" encoding="utf-8"?>
<!-- Generator: Adobe Illustrator 24.3.0, SVG Export Plug-In . SVG Version: 6.00 Build 0)  -->
<svg version="1.1" id="Calque_1" xmlns="http://www.w3.org/2000/svg" xmlns:xlink="http://www.w3.org/1999/xlink" x="0px" y="0px"
	 viewBox="0 0 640 640" style="enable-background:new 0 0 640 640;" xml:space="preserve">
<style type="text/css">
	.st0{fill:#FFFFFF;}
</style>
<path class="st0" d="M221.1,446c-44.7,0-81-36.3-81-81c0-35.4,22.6-65.4,54.1-76.4c0-1.5-0.1-3-0.1-4.5c0-49.7,40.3-89.9,89.9-89.9
	c33.4,0,62.5,18.1,78,45.2c8.5-5.8,18.9-9.2,30-9.2c29.9,0,53.9,24.2,53.9,53.9c0,6.9-1.3,13.4-3.6,19.4
	c32.9,6.6,57.6,35.8,57.6,70.5c0,39.8-32.2,72-72,72H221.1z M265.6,323.9c-5.3,5.3-5.3,13.8,0,19.1s13.8,5.3,19.1,0l22-22v75.5
	c0,7.5,6,13.5,13.5,13.5s13.5-6,13.5-13.5v-75.4l22,22c5.3,5.3,13.8,5.3,19.1,0c5.3-5.3,5.3-13.8,0-19.1l-45-45
	c-5.3-5.3-13.8-5.3-19.1,0L265.6,323.9L265.6,323.9z"/>
</svg>
